<?xml version="1.0" encoding="utf-8"?>
<!-- Generator: Adobe Illustrator 16.0.0, SVG Export Plug-In . SVG Version: 6.00 Build 0)  -->
<!DOCTYPE svg PUBLIC "-//W3C//DTD SVG 1.1//EN" "http://www.w3.org/Graphics/SVG/1.1/DTD/svg11.dtd">
<svg version="1.1" id="Layer_1" xmlns="http://www.w3.org/2000/svg" xmlns:xlink="http://www.w3.org/1999/xlink" x="0px" y="0px"
	 width="100px" height="60px" viewBox="0 0 100 60" enable-background="new 0 0 100 60" xml:space="preserve">
<g id="g578" transform="scale(16.66667,16.66667)">
	<rect id="rect124" x="0" y="0" fill="#213065" width="6" height="3.6"/>
	<g>
		<defs>
			<rect id="SVGID_1_" x="-47" y="-28.2" width="100" height="60"/>
		</defs>
		<clipPath id="SVGID_2_">
			<use xlink:href="#SVGID_1_"  overflow="visible"/>
		</clipPath>
		<g id="g584" clip-path="url(#SVGID_2_)">
			<path id="path146" fill="#FFFFFF" d="M-0.601-0.074v0.421l6.346,3.344h0.799V3.27L0.197-0.074H-0.601z M6.539-0.079v0.423
				L0.197,3.703h-0.798V3.28L5.74-0.079H6.539z"/>
			<path id="path136" fill="#FFFFFF" d="M2.374-0.074v3.785h1.19v-3.785H2.374z M-0.601,1.183v1.252h7.14V1.183H-0.601z"/>
			<path id="path141" fill="#CB2026" d="M-0.601,1.433v0.751h7.135V1.433H-0.601z M2.609-0.069v3.755h0.713v-3.755H2.609z"/>
			<path id="path150" fill="#CB2026" d="M-0.601,3.686l2.378-1.252h0.532L-0.07,3.686H-0.601z M-0.601-0.069l2.378,1.252H1.245
				l-1.847-0.972V-0.069z M3.623,1.183l2.378-1.252h0.532L4.155,1.183H3.623z M6.534,3.686L4.155,2.434h0.532l1.847,0.972V3.686z"/>
		</g>
	</g>
</g>
</svg>
