<?xml version="1.0" standalone="no"?>
<!DOCTYPE svg PUBLIC "-//W3C//DTD SVG 1.1//EN" "http://www.w3.org/Graphics/SVG/1.1/DTD/svg11.dtd" >
<svg>
<metadata>
Created by FontForge 20120731 at Mon Jul 22 18:30:03 2019
 By www
(c) 1990, 2002 Adobe Systems Incorporated. All rights reserved.
</metadata>
<defs>
<font id="RockwellStd-ExtraBold" horiz-adv-x="750" >
  <font-face 
    font-family="Rockwell Std ExtraBold"
    font-weight="800"
    font-stretch="normal"
    units-per-em="1000"
    panose-1="2 6 10 7 5 4 5 2 1 4"
    ascent="679"
    descent="-321"
    x-height="474"
    cap-height="679"
    bbox="-204 -219 1268 961"
    underline-thickness="50"
    underline-position="-100"
    unicode-range="U+0020-FB02"
  />
<missing-glyph horiz-adv-x="500" 
d="M0 0v700h500v-700h-500zM250 395l170 255h-340zM280 350l170 -255v510zM80 50h340l-170 255zM50 605v-510l170 255z" />
    <glyph glyph-name="f_i" unicode="fi" horiz-adv-x="792" 
d="M25 0v149h62v176h-62v149h62q-6 117 73 168t232 51q262 0 310 -133l-239 -27q-4 22 -22 35.5t-44 13.5q-36 0 -52 -25t-12 -83h376v-325h56v-149h-341v149h39v176h-130v-176h39v-149h-347z" />
    <glyph glyph-name="f_l" unicode="fl" horiz-adv-x="792" 
d="M25 0v149h62v176h-62v149h62q-5 113 71.5 166t225.5 53q65 0 143 -14h182v-530h56v-149h-341v149h39v381q-4 23 -21.5 37.5t-41.5 14.5q-38 0 -54 -24t-13 -84h64v-149h-64v-176h39v-149h-347z" />
    <glyph glyph-name=".notdef" horiz-adv-x="500" 
d="M0 0v700h500v-700h-500zM250 395l170 255h-340zM280 350l170 -255v510zM80 50h340l-170 255zM50 605v-510l170 255z" />
    <glyph glyph-name=".null" horiz-adv-x="0" 
 />
    <glyph glyph-name="nonmarkingreturn" horiz-adv-x="333" 
 />
    <glyph glyph-name="space" unicode=" " horiz-adv-x="333" 
 />
    <glyph glyph-name="exclam" unicode="!" horiz-adv-x="396" 
d="M76 0v178h243v-178h-243zM115 273l-35 211v195h235v-191l-35 -215h-165z" />
    <glyph glyph-name="quotedbl" unicode="&#x22;" horiz-adv-x="500" 
d="M278 679h198v-118l-31 -145h-136l-31 145v118zM24 679h198v-118l-31 -145h-136l-31 145v118z" />
    <glyph glyph-name="numbersign" unicode="#" horiz-adv-x="668" 
d="M230 151l-36 -171h-135l36 171h-63v135h91l22 106h-113v135h141l36 171h135l-36 -171h130l36 171h135l-36 -171h63v-135h-91l-22 -106h113v-135h-141l-36 -171h-135l36 171h-130zM258 286h130l22 106h-130z" />
    <glyph glyph-name="dollar" unicode="$" horiz-adv-x="625" 
d="M280 89v174q-239 63 -239 215q0 85 64 140.5t175 60.5v47h65v-47q114 -5 179 -58.5t60 -139.5h-153q-2 42 -21.5 64t-64.5 32v-154q138 -38 194.5 -93.5t56.5 -137.5q0 -79 -63.5 -139.5t-187.5 -61.5v-74h-65v77q-126 9 -190 65t-61 140h161q-2 -40 21 -69.5t69 -40.5z
M345 245v-162q103 3 103 75q0 60 -103 87zM280 443v140q-105 -5 -105 -66q0 -26 23 -42.5t82 -31.5z" />
    <glyph glyph-name="percent" unicode="%" horiz-adv-x="969" 
d="M767 -14q-79 0 -129 52t-50 135t50 135t129 52t128.5 -52t49.5 -135t-49.5 -135t-128.5 -52zM767 79q21 0 28.5 19.5t7.5 74.5q0 57 -6.5 75.5t-29.5 18.5q-20 0 -28.5 -21t-8.5 -73q0 -55 8 -74.5t29 -19.5zM203 319q-79 0 -129 52t-50 135t50 135t129 52t128.5 -52
t49.5 -135t-49.5 -135t-128.5 -52zM203 412q21 0 28.5 19.5t7.5 74.5q0 57 -6.5 75.5t-29.5 18.5q-20 0 -28.5 -21t-8.5 -73q0 -55 8 -74.5t29 -19.5zM309 0h-107l458 679h107z" />
    <glyph glyph-name="ampersand" unicode="&#x26;" horiz-adv-x="875" 
d="M838 163v-163h-287l-41 52q-92 -66 -225 -66q-119 0 -185 54t-66 151q0 80 57 142.5t154 87.5q-29 55 -29 107q0 88 66.5 126.5t195.5 38.5q48 0 78 -3v-141h-12q-64 0 -64 -47q0 -22 37 -69l70 -88q48 68 80 149h171v-163h-75q-22 -59 -75 -110l46 -58h104zM431 153
l-122 155q-62 -27 -62 -92q0 -43 27.5 -72.5t67.5 -29.5q44 0 89 39z" />
    <glyph glyph-name="quotesingle" unicode="'" horiz-adv-x="278" 
d="M40 679h198v-118l-31 -145h-136l-31 145v118z" />
    <glyph glyph-name="parenleft" unicode="(" horiz-adv-x="458" 
d="M423 -94v-124q-98 23 -173.5 72t-118.5 112.5t-64.5 131.5t-21.5 140q0 162 99.5 288t278.5 167v-124q-68 -29 -95.5 -110t-27.5 -221q0 -142 25.5 -220.5t97.5 -111.5z" />
    <glyph glyph-name="parenright" unicode=")" horiz-adv-x="458" 
d="M35 -94q72 33 97.5 111.5t25.5 220.5q0 140 -27.5 221t-95.5 110v124q179 -41 278.5 -167t99.5 -288q0 -72 -21.5 -140t-64.5 -131.5t-118.5 -112.5t-173.5 -72v124z" />
    <glyph glyph-name="asterisk" unicode="*" horiz-adv-x="625" 
d="M93 239l50 69q33 12 72 38t63 52q-49 8 -73 8q-52 0 -88 -12l-83 28l45 144l83 -26q26 -32 52.5 -52.5t76.5 -47.5q-15 88 -57 152v87h158v-87q-48 -71 -57 -152q97 55 126 100l84 26l46 -144l-82 -28q-49 13 -85 13q-47 0 -74 -9q68 -69 135 -90l50 -69l-123 -90l-51 69
q3 71 -47 154q-42 -80 -45 -154l-53 -69z" />
    <glyph glyph-name="plus" unicode="+" horiz-adv-x="668" 
d="M54 418h201v201h158v-201h201v-158h-201v-201h-158v201h-201v158z" />
    <glyph glyph-name="comma" unicode="," horiz-adv-x="396" 
d="M76 -197v96q54 0 73.5 21.5t18.5 79.5h-92v178h243v-217q0 -77 -52 -118.5t-145 -41.5q-30 0 -46 2z" />
    <glyph glyph-name="hyphen" unicode="-" horiz-adv-x="448" 
d="M50 131v211h348v-211h-348z" />
    <glyph glyph-name="period" unicode="." horiz-adv-x="396" 
d="M76 0v178h243v-178h-243z" />
    <glyph glyph-name="slash" unicode="/" horiz-adv-x="281" 
d="M142 679h139l-142 -679h-139z" />
    <glyph glyph-name="zero" unicode="0" horiz-adv-x="688" 
d="M51 342q0 156 82 253.5t211 97.5q125 0 208.5 -94t83.5 -257q0 -87 -25 -156t-67 -110.5t-93 -63t-107 -21.5q-124 0 -208.5 94.5t-84.5 256.5zM344 135q40 0 55 48t15 159q0 113 -16 160t-54 47q-40 0 -56 -50.5t-15 -156.5q1 -110 15.5 -158.5t55.5 -48.5z" />
    <glyph glyph-name="one" unicode="1" horiz-adv-x="688" 
d="M152 0v155h97v312q-47 -12 -97 -6v150q70 -2 126 21.5t85 60.5h102v-538h93v-155h-406z" />
    <glyph glyph-name="two" unicode="2" horiz-adv-x="688" 
d="M610 213l-6 -213h-540v16q0 157 105 262q27 28 99 82t88 69q38 38 38 75q0 30 -19 47.5t-51 17.5q-37 0 -54.5 -22.5t-21.5 -69.5l-174 5q1 58 23 100.5t60 66t82 34t96 10.5q121 0 196.5 -55t75.5 -144q0 -71 -53 -124q-44 -44 -144 -95t-125 -76t-32 -44h215l2 58h140z
" />
    <glyph glyph-name="three" unicode="3" horiz-adv-x="688" 
d="M45 228l176 13q6 -106 101 -106q39 0 61 20.5t22 56.5q0 82 -111 87v110q50 10 72 28.5t22 52.5q0 31 -20 50t-52 19q-70 0 -76 -77l-183 10q7 99 77.5 150t201.5 51q124 0 195.5 -51.5t71.5 -140.5q0 -49 -27.5 -85.5t-77.5 -53.5v-2q61 -13 95 -55t34 -104
q0 -97 -79.5 -153.5t-215.5 -56.5q-146 0 -216 64t-71 173z" />
    <glyph glyph-name="four" unicode="4" horiz-adv-x="688" 
d="M274 0v138h82v85h-286l-38 142l317 328h210v-349h70v-121h-70v-85h70v-138h-355zM356 344v189l-183 -189h183z" />
    <glyph glyph-name="five" unicode="5" horiz-adv-x="688" 
d="M40 183l177 11q23 -59 90 -59q45 0 70 24t25 67q0 41 -24 64.5t-66 23.5q-55 0 -93 -40l-147 52l20 353h500v-178h-114l-16 41h-242l-7 -133q69 42 156 42q114 0 184.5 -61.5t70.5 -161.5t-74.5 -168.5t-215.5 -68.5q-119 0 -197.5 51t-96.5 141z" />
    <glyph glyph-name="six" unicode="6" horiz-adv-x="688" 
d="M629 524l-170 -15q-23 55 -82 55q-49 0 -75.5 -40.5t-26.5 -114.5v-2v-4q61 43 140 43q95 0 157 -62t62 -157q0 -103 -75.5 -169.5t-192.5 -66.5q-130 0 -218.5 90t-88.5 263q0 166 83 257.5t233 91.5q104 0 169.5 -43.5t84.5 -125.5zM271 281q0 -153 90 -153q70 0 70 87
q0 46 -20.5 70t-54.5 24q-41 0 -85 -28z" />
    <glyph glyph-name="seven" unicode="7" horiz-adv-x="688" 
d="M129 0v155h88q33 101 93.5 208t128.5 179h-242v-94h-135v231h544v-130q-69 -105 -116.5 -217.5t-56.5 -176.5h89v-155h-393z" />
    <glyph glyph-name="eight" unicode="8" horiz-adv-x="688" 
d="M171 358q-104 39 -104 141q0 89 73.5 141.5t199.5 52.5q129 0 204.5 -51t75.5 -138q0 -102 -104 -146q68 -29 96 -66t28 -97q0 -38 -13 -71t-44 -64.5t-93 -50t-149 -18.5q-149 0 -221 55.5t-72 147.5q0 105 123 164zM264 488q0 -34 22 -53.5t59 -19.5t57.5 19.5
t20.5 54.5q0 34 -21 54.5t-56 20.5q-36 0 -59 -21.5t-23 -54.5zM253 205q0 -38 25.5 -61.5t66.5 -23.5t65.5 24t24.5 64t-24 63.5t-65 23.5t-67 -25t-26 -65z" />
    <glyph glyph-name="nine" unicode="9" horiz-adv-x="688" 
d="M59 160l170 15q23 -55 82 -55q49 0 75.5 40.5t26.5 114.5v2v4q-61 -43 -140 -43q-95 0 -157 62t-62 157q0 103 75.5 169.5t192.5 66.5q130 0 218.5 -90t88.5 -263q0 -166 -83 -257.5t-233 -91.5q-104 0 -169.5 43.5t-84.5 125.5zM417 403q0 153 -90 153q-70 0 -70 -87
q0 -46 20.5 -70t54.5 -24q41 0 85 28z" />
    <glyph glyph-name="colon" unicode=":" horiz-adv-x="396" 
d="M76 296v178h243v-178h-243zM76 0v178h243v-178h-243z" />
    <glyph glyph-name="semicolon" unicode=";" horiz-adv-x="396" 
d="M76 -197v96q54 0 73.5 21.5t18.5 79.5h-92v178h243v-217q0 -77 -52 -118.5t-145 -41.5q-30 0 -46 2zM76 296v178h243v-178h-243z" />
    <glyph glyph-name="less" unicode="&#x3c;" horiz-adv-x="667" 
d="M53 410l561 232v-171l-343 -133l343 -133v-171l-561 232v144z" />
    <glyph glyph-name="equal" unicode="=" horiz-adv-x="667" 
d="M53 538h561v-158h-561v158zM53 298h561v-158h-561v158z" />
    <glyph glyph-name="greater" unicode="&#x3e;" horiz-adv-x="667" 
d="M614 410v-144l-561 -232v171l343 133l-343 133v171z" />
    <glyph glyph-name="question" unicode="?" horiz-adv-x="635" 
d="M236 265l-12 147h6q26 -4 53 -4q47 0 74.5 24t27.5 65q0 36 -23 59t-60 23q-38 0 -58.5 -21t-20.5 -59h-197q3 90 77 141q76 53 213 53q136 0 215 -52.5t79 -142.5q0 -86 -68 -139t-168 -50l-10 -44h-128zM178 0v178h243v-178h-243z" />
    <glyph glyph-name="at" unicode="@" horiz-adv-x="740" 
d="M565 506l-61 -386q-4 -19 -0.5 -28.5t17.5 -9.5q15 0 38 13.5t48.5 39.5t43 76t17.5 112q0 128 -73.5 203t-198.5 75q-144 0 -234 -99t-90 -257q0 -154 87 -247.5t230 -93.5q137 0 253 91h110q-58 -75 -157 -124t-204 -49q-172 0 -287.5 121t-115.5 302q0 57 13 115
t43.5 117.5t76 104.5t117 73.5t158.5 28.5q88 0 157.5 -30.5t112 -81.5t64.5 -114.5t22 -134.5q0 -79 -28.5 -144t-71 -102t-85.5 -57t-78 -20q-59 0 -76 58q-59 -58 -117 -58q-71 0 -115 58t-44 152q0 75 25.5 146t74.5 119t109 48q36 0 62 -16.5t53 -55.5l9 55h95z
M245 183q0 -50 17.5 -78t49.5 -28q28 0 55 27q26 26 43 100t17 144q0 91 -64 91q-54 0 -86 -76.5t-32 -179.5z" />
    <glyph glyph-name="A" unicode="A" horiz-adv-x="760" 
d="M11 0v163h51l128 353h-55v163h489v-163h-55l130 -353h50v-163h-355v149h59l-26 85h-174l-29 -85h56v-149h-269zM280 319h121l-57 188h-2z" />
    <glyph glyph-name="B" unicode="B" horiz-adv-x="854" 
d="M44 0v163h59v353h-59v163h482q140 0 201.5 -50t61.5 -126q0 -52 -33 -89t-91 -50v-2q67 -16 108 -63t41 -108q0 -37 -14.5 -69t-46.5 -60.5t-94 -45t-148 -16.5h-467zM366 149h59q56 0 80 15t24 51q0 68 -92 68h-71v-134zM366 406h62q49 0 70 14.5t21 47.5
q0 31 -20.5 46.5t-67.5 15.5h-65v-124z" />
    <glyph glyph-name="C" unicode="C" horiz-adv-x="802" 
d="M584 300l176 -63q-58 -248 -329 -248q-88 0 -156.5 23t-110 59t-68.5 84t-37 93t-10 92q0 153 94.5 253t239.5 100q118 0 193 -59v45h163v-248h-169q-15 48 -45.5 73.5t-70.5 25.5q-110 0 -110 -189q0 -99 28 -146t86 -47q99 0 126 152z" />
    <glyph glyph-name="D" unicode="D" horiz-adv-x="875" 
d="M39 0v163h53v354h-53v162h325q99 0 160.5 -9.5t116.5 -37.5q83 -42 127.5 -123t44.5 -173q0 -91 -41.5 -171.5t-111.5 -115.5q-46 -23 -96 -34.5t-86.5 -13t-113.5 -1.5h-325zM355 163h39q70 0 102 43.5t32 132.5q0 96 -31 136.5t-103 40.5h-39v-353z" />
    <glyph glyph-name="E" unicode="E" 
d="M45 0v163h53v353h-53v163h648v-217h-178v54h-154v-104h134v-138h-134v-111h154v54h178v-217h-648z" />
    <glyph glyph-name="F" unicode="F" horiz-adv-x="708" 
d="M26 0v163h72v353h-74v163h669v-224h-178v61h-154v-106h116v-138h-116v-109h78v-163h-413z" />
    <glyph glyph-name="G" unicode="G" horiz-adv-x="844" 
d="M489 234v129h304v-51q0 -154 -95.5 -238.5t-246.5 -84.5q-98 0 -173 25.5t-117 63.5t-68.5 88t-35 91.5t-8.5 82.5q0 154 101.5 253.5t257.5 99.5q125 0 197 -61v47h163v-237h-163q-48 88 -137 88q-71 0 -97.5 -47.5t-26.5 -151.5q0 -96 29 -139.5t94 -43.5q44 0 68 22.5
t24 63.5h-70z" />
    <glyph glyph-name="H" unicode="H" horiz-adv-x="875" 
d="M44 0v163h52v353h-52v163h358v-163h-43v-104h157v104h-43v163h358v-163h-52v-353h52v-163h-358v163h43v111h-157v-111h43v-163h-358z" />
    <glyph glyph-name="I" unicode="I" horiz-adv-x="458" 
d="M35 0v163h63v353h-63v163h389v-163h-63v-353h63v-163h-389z" />
    <glyph glyph-name="J" unicode="J" horiz-adv-x="448" 
d="M20 -210v167q16 -4 29 -4q30 0 39 20t9 82v461h-62v163h383v-163h-58v-456q0 -89 -12.5 -136.5t-47.5 -82.5q-34 -34 -74 -46.5t-104 -12.5q-46 0 -102 8z" />
    <glyph glyph-name="K" unicode="K" horiz-adv-x="854" 
d="M45 0v163h52v353h-52v163h369v-163h-54v-353h54v-163h-369zM485 0v163h32l-149 193l173 160h-56v163h335v-163h-53l-138 -128l173 -225h34v-163h-351z" />
    <glyph glyph-name="L" unicode="L" horiz-adv-x="698" 
d="M35 0v163h61v353h-61v163h388v-163h-64v-353h160v109h163v-272h-647z" />
    <glyph glyph-name="M" unicode="M" horiz-adv-x="1104" 
d="M43 0v163h53v353h-53v163h409l100 -262l103 262h406v-163h-53v-353h53v-163h-352v163h53v377h-2l-202 -540h-102l-200 540h-2v-377h53v-163h-264z" />
    <glyph glyph-name="N" unicode="N" horiz-adv-x="854" 
d="M33 0v163h60v353h-60v163h322l247 -355h2v192h-57v163h274v-163h-59v-527h-224l-285 413h-2v-239h61v-163h-279z" />
    <glyph glyph-name="O" unicode="O" horiz-adv-x="865" 
d="M49 341q0 62 23.5 122.5t68 113t120.5 84.5t171 32t171 -32t120.5 -84.5t68 -113t23.5 -122.5t-23.5 -122.5t-68 -113t-120.5 -84.5t-171 -32t-171 32t-120.5 84.5t-68 113t-23.5 122.5zM344 341q0 -102 18.5 -147.5t69.5 -45.5t69.5 45.5t18.5 147.5t-18.5 147.5
t-69.5 45.5t-69.5 -45.5t-18.5 -147.5z" />
    <glyph glyph-name="P" unicode="P" horiz-adv-x="823" 
d="M44 0v163h66v353h-66v163h458q152 0 225 -60.5t73 -153.5q0 -35 -12 -68t-39.5 -66.5t-84 -54t-134.5 -20.5h-157v-93h68v-163h-397zM373 405h72q80 0 80 62q0 32 -20 47.5t-68 15.5h-64v-125z" />
    <glyph glyph-name="Q" unicode="Q" horiz-adv-x="865" 
d="M444 -11v-2q31 -5 76.5 -18t87.5 -18.5t99 -1.5l-56 -157q-41 -8 -94 13t-113.5 46.5t-110.5 25.5q-55 0 -92 -25l-72 94q59 52 162 53v2q-120 18 -201 118t-81 222q0 62 23.5 122t68 112.5t120.5 85t171 32.5q94 0 169.5 -32t121 -83.5t69 -112.5t23.5 -124
q0 -62 -24 -123t-68 -113t-117 -84t-162 -32zM344 341q0 -102 18.5 -147.5t69.5 -45.5t69.5 45.5t18.5 147.5t-18.5 147.5t-69.5 45.5t-69.5 -45.5t-18.5 -147.5z" />
    <glyph glyph-name="R" unicode="R" horiz-adv-x="854" 
d="M44 0v163h55v353h-55v163h377q144 0 211 -15t110 -58q52 -52 52 -130q0 -52 -27 -95.5t-72 -62.5l94 -155h49v-163h-245l-148 277h-83v-114h51v-163h-369zM362 401h74q40 0 61.5 17t21.5 47t-21 47.5t-60 17.5h-76v-129z" />
    <glyph glyph-name="S" unicode="S" horiz-adv-x="625" 
d="M45 0v218h153q30 -89 104 -89q25 0 39.5 12t14.5 32q0 19 -17 36q-18 18 -107.5 57t-129.5 79q-62 62 -62 142q0 90 59 145.5t154 55.5q89 0 151 -51v42h153v-193h-153l-3 9q-30 71 -95 71q-23 0 -36.5 -11t-13.5 -31q0 -18 12 -30t60 -33t105.5 -52t91.5 -65
q23 -23 41 -62.5t18 -84.5q0 -88 -64 -147t-159 -59q-90 0 -163 54v-45h-153z" />
    <glyph glyph-name="T" unicode="T" 
d="M713 679v-286h-128v123h-78v-353h60v-163h-383v163h60v353h-78v-123h-128v286h675z" />
    <glyph glyph-name="U" unicode="U" horiz-adv-x="729" 
d="M28 516v163h348v-163h-33v-250q0 -25 2 -41.5t8.5 -36t21.5 -30t39 -10.5q37 0 51 26.5t14 96.5v245h-34v163h255v-163h-53v-264q0 -127 -70.5 -195t-209.5 -68q-143 0 -215 66t-72 215v246h-52z" />
    <glyph glyph-name="V" unicode="V" 
d="M275 -6l-216 522h-51v163h365v-163h-57l100 -289h2l105 289h-56v163h274v-163h-50l-204 -522h-212z" />
    <glyph glyph-name="W" unicode="W" horiz-adv-x="1104" 
d="M246 -6l-191 522h-47v163h352v-163h-50l79 -292h2l101 292h-51v163h296v-163h-50l101 -292h2l80 292h-49v163h274v-163h-46l-194 -522h-210l-91 262h-2l-91 -262h-215z" />
    <glyph glyph-name="X" unicode="X" horiz-adv-x="1000" 
d="M26 0v163h76l223 173l-223 180h-72v163h452v-143h-67l114 -99l100 99h-58v143h377v-163h-101l-184 -153l243 -200h68v-163h-457v143h71l-125 113l-115 -113h72v-143h-394z" />
    <glyph glyph-name="Y" unicode="Y" horiz-adv-x="729" 
d="M181 0v163h54v108l-171 245h-46v163h355v-163h-40l71 -138l87 138h-41v163h261v-163h-43l-170 -245v-108h54v-163h-371z" />
    <glyph glyph-name="Z" unicode="Z" horiz-adv-x="729" 
d="M29 0v156l335 374h-170v-84h-156v233h659v-138l-351 -392h197v93h156v-242h-670z" />
    <glyph glyph-name="bracketleft" unicode="[" horiz-adv-x="500" 
d="M77 -208v887h382v-188h-141v-511h139v-188h-380z" />
    <glyph glyph-name="backslash" unicode="\" horiz-adv-x="281" 
d="M139 679l142 -679h-139l-142 679h139z" />
    <glyph glyph-name="bracketright" unicode="]" horiz-adv-x="500" 
d="M423 679v-887h-382v188h141v511h-139v188h380z" />
    <glyph glyph-name="asciicircum" unicode="^" horiz-adv-x="660" 
d="M261 693h136l200 -397h-173l-95 240l-94 -240h-173z" />
    <glyph glyph-name="underscore" unicode="_" horiz-adv-x="500" 
d="M506 -125h-512v50h512v-50z" />
    <glyph glyph-name="grave" unicode="`" horiz-adv-x="333" 
d="M272 544h-117l-202 175h226z" />
    <glyph glyph-name="a" unicode="a" 
d="M231 340l-192 20q29 70 100 99t209 29q168 0 240.5 -40t72.5 -137v-162h62v-149h-308v42q-18 -16 -32 -25t-50 -17.5t-87 -8.5q-102 0 -152.5 44t-50.5 104q0 68 63 110t163 42q93 0 146 -25v43q0 33 -24 55t-68 22q-60 0 -92 -46zM415 121v86q-35 18 -69 18
q-32 0 -51.5 -18t-19.5 -46q0 -33 20 -50.5t46 -17.5q43 0 74 28z" />
    <glyph glyph-name="b" unicode="b" horiz-adv-x="792" 
d="M26 0v149h62v381h-62v149h308v-236q62 39 153 39q115 0 187 -64.5t72 -176.5q0 -106 -71.5 -178t-177.5 -72q-103 0 -163 52v-43h-308zM332 236q0 -50 22 -77.5t62 -27.5q81 0 81 107q0 49 -22 76.5t-61 27.5q-38 0 -60 -28.5t-22 -77.5z" />
    <glyph glyph-name="c" unicode="c" horiz-adv-x="688" 
d="M471 195l183 -41q-24 -80 -99.5 -124t-190.5 -44q-146 0 -233 67.5t-87 179.5q0 106 81 177.5t201 71.5q87 0 155 -48v40h150v-202h-150q-30 83 -94 83q-42 0 -68 -34.5t-26 -88.5t25.5 -86.5t68.5 -32.5q69 0 84 82z" />
    <glyph glyph-name="d" unicode="d" horiz-adv-x="802" 
d="M767 0h-308v43q-22 -21 -64.5 -36.5t-98.5 -15.5q-106 0 -177.5 72t-71.5 178q0 112 72 176.5t187 64.5q91 0 153 -39v87h-60v149h306v-530h62v-149zM461 236q0 49 -22 77.5t-60 28.5q-39 0 -61 -27.5t-22 -76.5q0 -107 81 -107q40 0 62 27.5t22 77.5z" />
    <glyph glyph-name="e" unicode="e" horiz-adv-x="698" 
d="M440 149l203 -24q-30 -67 -101 -103t-172 -36q-165 0 -245.5 71t-80.5 177q0 113 84.5 183.5t219.5 70.5q60 0 112 -15t96.5 -46t70.5 -86t27 -129h-373q1 -56 23.5 -85.5t63.5 -29.5q51 0 72 52zM423 274q3 51 -17.5 78t-53.5 27t-51.5 -30t-16.5 -75h139z" />
    <glyph glyph-name="f" unicode="f" horiz-adv-x="458" 
d="M34 0v149h60v176h-60v149h60q-3 122 70 170.5t217 48.5q4 0 45 -1t59 0v-132q-39 3 -59 3q-53 0 -70 -18.5t-16 -70.5h90v-149h-90v-176h80v-149h-386z" />
    <glyph glyph-name="g" unicode="g" horiz-adv-x="792" 
d="M83 -178l67 121q56 -24 151 -24q81 0 122 28.5t36 101.5q-72 -38 -162 -38q-114 0 -184.5 63t-70.5 165q0 106 74 174.5t189 68.5q92 0 154 -51v43h305v-149h-59v-287q0 -137 -81.5 -196.5t-261.5 -59.5q-174 0 -279 40zM291 234q0 -47 23 -74.5t62 -27.5t61.5 27.5
t22.5 74.5q0 49 -23.5 78.5t-61.5 29.5t-61 -29.5t-23 -78.5z" />
    <glyph glyph-name="h" unicode="h" horiz-adv-x="792" 
d="M22 0v149h62v381h-62v149h308v-263q97 66 197 66q81 0 129 -49.5t48 -153.5v-130h56v-149h-302v253q0 69 -59 69q-27 0 -69 -20v-153h66v-149h-374z" />
    <glyph glyph-name="i" unicode="i" horiz-adv-x="406" 
d="M35 0v149h49v176h-49v149h295v-325h41v-149h-336zM198 693q58 0 95.5 -23.5t37.5 -60.5q0 -36 -35.5 -60.5t-97.5 -24.5t-98 22.5t-36 62.5q0 35 38.5 59.5t95.5 24.5z" />
    <glyph glyph-name="j" unicode="j" horiz-adv-x="406" 
d="M-2 -202v133q65 1 79.5 18.5t14.5 92.5v283h-49v149h295v-414q0 -75 -10.5 -123t-39 -81.5t-77.5 -47.5t-126 -14q-55 0 -87 4zM198 693q58 0 95.5 -23.5t37.5 -60.5q0 -39 -37 -62t-96 -23q-63 0 -98.5 22.5t-35.5 62.5q0 36 38.5 60t95.5 24z" />
    <glyph glyph-name="k" unicode="k" horiz-adv-x="740" 
d="M24 0v149h61v381h-61v149h307v-473l154 151h-86v117h303v-129h-56l-89 -87l107 -109h38v-149h-176l-195 205v-205h-307z" />
    <glyph glyph-name="l" unicode="l" horiz-adv-x="406" 
d="M33 0v149h50v381h-50v149h296v-530h44v-149h-340z" />
    <glyph glyph-name="m" unicode="m" horiz-adv-x="1198" 
d="M34 0v149h60v176h-60v149h306v-70q88 78 205 78q122 0 163 -92q110 92 222 92q80 0 128 -48.5t48 -150.5v-134h63v-149h-309v261q0 61 -55 61q-40 0 -82 -30v-143h68v-149h-314v261q0 32 -13 46.5t-42 14.5q-41 0 -82 -30v-143h68v-149h-374z" />
    <glyph glyph-name="n" unicode="n" horiz-adv-x="802" 
d="M33 0v149h62v176h-62v149h308v-66q97 74 194 74q86 0 134.5 -48t48.5 -150v-135h56v-149h-302v248q0 74 -60 74q-35 0 -71 -24v-149h69v-149h-377z" />
    <glyph glyph-name="o" unicode="o" 
d="M43 237q0 117 97.5 184t234.5 67q60 0 116.5 -14.5t106 -43.5t79.5 -79t30 -114q0 -78 -47.5 -136.5t-121.5 -86.5t-163 -28q-139 0 -235.5 66.5t-96.5 184.5zM292 236q0 -53 21 -81.5t60 -28.5q41 0 63 29.5t22 84.5q0 51 -21.5 79.5t-59.5 28.5q-40 0 -62.5 -29.5
t-22.5 -82.5z" />
    <glyph glyph-name="p" unicode="p" horiz-adv-x="802" 
d="M36 474h303v-43q64 51 160 51q111 0 184 -70.5t73 -177.5q0 -110 -73 -176.5t-191 -66.5q-92 0 -153 39v-99h62v-149h-365v149h57v394h-57v149zM339 236q0 -50 21 -77.5t60 -27.5q38 0 62.5 26.5t24.5 83.5q0 100 -84 100q-40 0 -62 -27.5t-22 -77.5z" />
    <glyph glyph-name="q" unicode="q" horiz-adv-x="802" 
d="M766 474v-149h-57v-394h57v-149h-365v149h62v99q-61 -39 -153 -39q-118 0 -191 66.5t-73 176.5q0 107 73 177.5t184 70.5q99 0 160 -51v43h303zM463 236q0 50 -22 77.5t-62 27.5q-84 0 -84 -100q0 -57 24.5 -83.5t62.5 -26.5q39 0 60 27.5t21 77.5z" />
    <glyph glyph-name="r" unicode="r" horiz-adv-x="542" 
d="M32 0v149h64v176h-64v149h294v-119h2q47 136 213 127v-205q-107 5 -154.5 -27t-44.5 -101h72v-149h-382z" />
    <glyph glyph-name="s" unicode="s" horiz-adv-x="615" 
d="M59 -6v151h142q33 -33 59 -45.5t61 -12.5q29 0 47 7.5t18 19.5q0 9 -6.5 15.5t-20 11.5t-24 7.5t-30 6.5t-26.5 6q-160 37 -205 86q-30 34 -30 83q0 72 51.5 112.5t144.5 40.5q51 0 92.5 -14.5t54.5 -29.5v35h150v-138h-139q-56 50 -126 50q-53 0 -53 -31q0 -5 3 -9
t9.5 -7.5t14 -5.5t21.5 -5t26 -5t32 -6t36 -7q129 -26 177 -74q33 -33 33 -85q0 -46 -20 -79.5t-53.5 -50t-67 -23.5t-69.5 -7q-21 0 -40 2.5t-31.5 5t-27.5 8t-20 8t-17.5 9.5t-13.5 7v-37h-152z" />
    <glyph glyph-name="t" unicode="t" horiz-adv-x="458" 
d="M414 173v-145q-26 -19 -71.5 -30.5t-89.5 -11.5q-185 0 -185 182v157h-62v149h62v72l246 117v-189h100v-149h-100v-99q0 -38 9 -53t34 -15q29 0 57 15z" />
    <glyph glyph-name="u" unicode="u" horiz-adv-x="792" 
d="M23 325v149h303v-247q0 -40 12.5 -58t42.5 -18q40 0 75 22v152h-64v149h310v-325h57v-149h-303v60q-96 -69 -199 -69q-78 0 -127.5 50.5t-49.5 152.5v131h-57z" />
    <glyph glyph-name="v" unicode="v" horiz-adv-x="677" 
d="M243 -6l-178 331h-47v149h334v-149h-53l79 -180l83 180h-47v149h245v-149h-46l-173 -331h-197z" />
    <glyph glyph-name="w" unicode="w" horiz-adv-x="1021" 
d="M217 -6l-145 331h-51v149h320v-149h-48l56 -158l117 307h182l106 -307l61 158h-46v149h231v-149h-46l-139 -331h-194l-108 243l-102 -243h-194z" />
    <glyph glyph-name="x" unicode="x" horiz-adv-x="677" 
d="M40 0v149h59l70 76l-83 100h-57v149h240l87 -128l89 128h185v-149h-66l-61 -69l90 -107h55v-149h-235l-92 129l-95 -129h-186z" />
    <glyph glyph-name="y" unicode="y" horiz-adv-x="656" 
d="M125 -218v149h80l24 44l-182 350h-37v149h323v-149h-52l83 -186l75 186h-46v149h245v-149h-47l-259 -543h-207z" />
    <glyph glyph-name="z" unicode="z" horiz-adv-x="656" 
d="M40 0v125l266 237h-161v-55h-101v167h572v-117l-270 -245h163v57h102v-169h-571z" />
    <glyph glyph-name="braceleft" unicode="{" horiz-adv-x="389" 
d="M12 168v139q50 0 72.5 25.5t22.5 79.5v84q0 109 44 153t147 44h79v-160h-18q-44 0 -59.5 -23t-15.5 -85v-27q0 -70 -20.5 -108.5t-67.5 -50.5v-2q47 -12 67.5 -51t20.5 -109v-27q0 -62 15.5 -85t59.5 -23h18v-160h-79q-103 0 -147 44t-44 153v84q0 54 -22.5 79.5
t-72.5 25.5z" />
    <glyph glyph-name="bar" unicode="|" horiz-adv-x="639" 
d="M240 679h160v-832h-160v832z" />
    <glyph glyph-name="braceright" unicode="}" horiz-adv-x="389" 
d="M377 307v-139q-50 0 -72.5 -25.5t-22.5 -79.5v-84q0 -109 -44 -153t-147 -44h-79v160h18q44 0 59.5 23t15.5 85v27q0 70 20.5 108.5t67.5 50.5v2q-47 12 -67.5 51t-20.5 109v27q0 62 -15.5 85t-59.5 23h-18v160h79q103 0 147 -44t44 -153v-84q0 -54 22.5 -79.5
t72.5 -25.5z" />
    <glyph glyph-name="asciitilde" unicode="~" horiz-adv-x="656" 
d="M608 487v-159q-54 -43 -88 -59t-73 -16q-51 0 -130 39t-113 39q-75 0 -156 -78v162q83 73 165 73q51 0 132 -39t112 -39q68 0 151 77z" />
    <glyph glyph-name="uni00A0" unicode="&#xa0;" horiz-adv-x="333" 
 />
    <glyph glyph-name="exclamdown" unicode="&#xa1;" horiz-adv-x="396" 
d="M320 474v-178h-243v178h243zM281 201l35 -211v-195h-235v191l35 215h165z" />
    <glyph glyph-name="cent" unicode="&#xa2;" horiz-adv-x="688" 
d="M320 -12q-128 10 -202 76.5t-74 170.5q0 114 85 180.5t191 66.5v75h73v-81q54 -11 88 -32v30h150v-202h-150q-8 31 -34 57t-61 26q-41 0 -67 -34.5t-26 -88.5q0 -52 26.5 -85.5t67.5 -33.5q68 0 84 82l183 -40q-23 -76 -93.5 -122.5t-167.5 -46.5v-78h-73v80z" />
    <glyph glyph-name="sterling" unicode="&#xa3;" horiz-adv-x="625" 
d="M511 215l115 -30q-7 -93 -54 -143.5t-125 -50.5q-81 0 -136 62q-60 -62 -134 -62q-60 0 -98 36.5t-38 92.5q0 52 35 84t91 32q31 0 60 -14q-17 52 -53 90h-125v90h75q-23 46 -23 97q0 91 70.5 142.5t193.5 51.5q116 0 178.5 -45.5t62.5 -129.5l-160 -21q-4 34 -21.5 53.5
t-44.5 19.5q-26 0 -42 -16t-16 -42q0 -27 38 -110h151v-90h-124q7 -26 7 -55q0 -47 -14 -86q31 -19 65 -19q28 0 43.5 14.5t22.5 48.5zM241 131q-39 45 -84 45q-24 0 -40.5 -16t-16.5 -40q0 -27 18.5 -44.5t46.5 -17.5q67 0 76 73z" />
    <glyph glyph-name="currency" unicode="&#xa4;" horiz-adv-x="668" 
d="M54 516l104 104l69 -69q46 24 104 24q57 0 109 -26l71 71l104 -104l-72 -72q25 -50 25 -106q0 -49 -24 -104l71 -71l-104 -104l-69 69q-54 -27 -111 -27q-58 0 -106 25l-67 -67l-104 104l66 66q-26 55 -26 109q0 62 27 111zM331 432q-39 0 -66.5 -27.5t-27.5 -66.5
t27.5 -66.5t66.5 -27.5t66.5 27.5t27.5 66.5t-27.5 66.5t-66.5 27.5z" />
    <glyph glyph-name="yen" unicode="&#xa5;" horiz-adv-x="729" 
d="M235 227h-204v65h188l-45 66h-143v65h98l-65 93h-46v163h355v-163h-41l72 -138l87 138h-41v163h261v-163h-42l-65 -93h93v-65h-139l-46 -66h185v-65h-199v-64h54v-163h-371v163h54v64z" />
    <glyph glyph-name="brokenbar" unicode="&#xa6;" horiz-adv-x="639" 
d="M240 208h160v-361h-160v361zM240 679h160v-362h-160v362z" />
    <glyph glyph-name="section" unicode="&#xa7;" horiz-adv-x="677" 
d="M76 -42h164q2 -40 30.5 -61t76.5 -21q88 0 88 60q0 20 -15 35q-17 17 -81.5 39.5t-137 52.5t-108.5 66q-49 49 -49 119q0 90 91 147q-60 54 -60 125q0 80 68 126.5t183 46.5q121 0 194.5 -48.5t78.5 -130.5h-163q-13 46 -38 65.5t-70 19.5q-38 0 -60.5 -16t-22.5 -43
q0 -21 12 -33q18 -18 80 -37.5t131.5 -46.5t106.5 -64q57 -57 57 -135q0 -47 -21 -80t-69 -60q70 -53 70 -121q0 -84 -71.5 -132.5t-194.5 -48.5q-75 0 -134 16t-98.5 57t-37.5 103zM236 334q-30 -20 -30 -50q0 -31 24 -55q20 -20 104.5 -49.5t110.5 -42.5q29 18 29 50
q0 38 -20 58q-28 28 -110.5 52.5t-107.5 36.5z" />
    <glyph glyph-name="dieresis" unicode="&#xa8;" horiz-adv-x="333" 
d="M8 739q38 0 64 -26.5t26 -63.5q0 -38 -26.5 -64.5t-63.5 -26.5q-38 0 -64.5 27t-26.5 64t26.5 63.5t64.5 26.5zM326 739q38 0 64 -26.5t26 -63.5q0 -38 -26.5 -64.5t-63.5 -26.5q-38 0 -64.5 27t-26.5 64t26.5 63.5t64.5 26.5z" />
    <glyph glyph-name="copyright" unicode="&#xa9;" horiz-adv-x="802" 
d="M488 313l100 -24q-43 -141 -185 -141q-91 0 -147 58.5t-56 152.5q0 91 57.5 150t146.5 59q70 0 118.5 -36.5t61.5 -98.5l-96 -15q-18 78 -89 78q-42 0 -66 -37t-24 -100q0 -139 91 -139q68 0 88 93zM28 358q0 154 109 263.5t264 109.5t264 -109.5t109 -263.5t-109.5 -263
t-263.5 -109t-263.5 109t-109.5 263zM100 358q0 -124 88 -212t213 -88t213 88t88 212q0 125 -88 213t-213 88t-213 -88t-88 -213z" />
    <glyph glyph-name="ordfeminine" unicode="&#xaa;" horiz-adv-x="479" 
d="M150 590l-137 12q19 50 67 70.5t139 20.5q115 0 161.5 -26.5t46.5 -96.5v-77h39v-106h-207v15q-53 -20 -101 -20q-63 0 -100 26t-37 70t41.5 71t111.5 27q40 0 85 -11q0 29 -12.5 41.5t-41.5 12.5q-41 0 -55 -29zM259 465v40q-23 8 -38 8q-40 0 -40 -29q0 -12 11 -21.5
t25 -9.5q12 0 42 12z" />
    <glyph glyph-name="guillemotleft" unicode="&#xab;" horiz-adv-x="771" 
d="M745 474l-113 -238l113 -236h-227l-111 236l111 238h227zM382 474l-113 -238l113 -236h-227l-111 236l111 238h227z" />
    <glyph glyph-name="logicalnot" unicode="&#xac;" horiz-adv-x="668" 
d="M53 542h561v-395h-158v237h-403v158z" />
    <glyph glyph-name="uni00AD" unicode="&#xad;" horiz-adv-x="448" 
d="M50 131v211h348v-211h-348z" />
    <glyph glyph-name="registered" unicode="&#xae;" horiz-adv-x="802" 
d="M578 160h-100l-33 64q-28 54 -51.5 76.5t-53.5 22.5h-27v-163h-81v397h200q58 0 90 -31.5t32 -79.5q0 -46 -28.5 -75.5t-78.5 -35.5v-2q25 -9 38.5 -24t45.5 -69zM313 386h78q78 0 78 55q0 54 -83 54h-73v-109zM28 358q0 154 109 263.5t264 109.5t264 -109.5t109 -263.5
t-109.5 -263t-263.5 -109t-263.5 109t-109.5 263zM100 358q0 -124 88 -212t213 -88t213 88t88 212q0 125 -88 213t-213 88t-213 -88t-88 -213z" />
    <glyph glyph-name="macron" unicode="&#xaf;" horiz-adv-x="333" 
d="M-83 686h500v-106h-500v106z" />
    <glyph glyph-name="degree" unicode="&#xb0;" horiz-adv-x="400" 
d="M200 693q79 0 134.5 -55.5t55.5 -134.5t-55.5 -134.5t-134.5 -55.5t-134.5 55.5t-55.5 134.5t55.5 134.5t134.5 55.5zM199 593q-38 0 -63.5 -26t-25.5 -64t25.5 -64t63.5 -26t64.5 26t26.5 64t-26.5 64t-64.5 26z" />
    <glyph glyph-name="plusminus" unicode="&#xb1;" horiz-adv-x="668" 
d="M54 534h201v182h158v-182h201v-158h-201v-182h-158v182h-201v158zM54 158h560v-158h-560v158z" />
    <glyph glyph-name="twosuperior" unicode="&#xb2;" horiz-adv-x="406" 
d="M227 588q0 24 -36 24q-9 0 -15.5 -2.5t-10 -6t-6 -10t-3 -9.5t-1.5 -10.5t-1 -8.5l-116 3q0 125 160 125q74 0 120 -30.5t46 -80.5q0 -37 -28 -65q-30 -30 -103 -59q-57 -23 -66 -37h105l1 29h94l-4 -127h-331v23q0 69 53 122q24 24 69.5 53t58.5 42q14 14 14 25z" />
    <glyph glyph-name="threesuperior" unicode="&#xb3;" horiz-adv-x="406" 
d="M232 440q0 35 -65 36v73q56 3 56 32q0 26 -37 26q-21 0 -29 -9t-10 -29l-120 4q4 62 45 91t124 29q77 0 121 -28t44 -77q0 -41 -40 -69q29 -17 41.5 -36.5t12.5 -47.5q0 -54 -48 -85t-131 -31q-173 0 -176 138l116 8q2 -32 13.5 -44t39.5 -12q43 0 43 31z" />
    <glyph glyph-name="acute" unicode="&#xb4;" horiz-adv-x="333" 
d="M61 544l93 175h226l-202 -175h-117z" />
    <glyph glyph-name="mu" unicode="&#xb5;" horiz-adv-x="667" 
d="M59 -218v692h200v-234q0 -94 66 -94q56 0 83 47v281h200v-474h-195v60h-3q-34 -74 -105 -74q-29 0 -46 14v-218h-200z" />
    <glyph glyph-name="paragraph" unicode="&#xb6;" horiz-adv-x="850" 
d="M787 693v-155h-65v-756h-145v756h-81v-756h-145v495h-66q-112 0 -167 60.5t-55 151.5q0 85 55 144.5t169 59.5h500z" />
    <glyph glyph-name="periodcentered" unicode="&#xb7;" horiz-adv-x="396" 
d="M76 278v178h243v-178h-243z" />
    <glyph glyph-name="cedilla" unicode="&#xb8;" horiz-adv-x="333" 
d="M55 -191l7 59q7 -2 23 -2q50 0 50 30q0 22 -23 22q-7 0 -14 -1l10 47q35 29 83 29q46 0 76.5 -27.5t30.5 -68.5q0 -46 -38 -71.5t-107 -25.5q-55 0 -98 9z" />
    <glyph glyph-name="onesuperior" unicode="&#xb9;" horiz-adv-x="406" 
d="M78 323v98h57v137q-33 -7 -57 0v94q53 -1 80.5 9t47.5 32h68v-272h55v-98h-251z" />
    <glyph glyph-name="ordmasculine" unicode="&#xba;" horiz-adv-x="479" 
d="M21 537q0 68 60 112t154 44q99 0 161 -43.5t62 -112.5q0 -70 -60 -114t-157 -44q-100 0 -160 43.5t-60 114.5zM192 535q0 -56 46 -56q49 0 49 60q0 54 -46 54q-49 0 -49 -58z" />
    <glyph glyph-name="guillemotright" unicode="&#xbb;" horiz-adv-x="771" 
d="M26 0l113 238l-113 236h227l111 -236l-111 -238h-227zM389 0l113 238l-113 236h227l111 -236l-111 -238h-227z" />
    <glyph glyph-name="onequarter" unicode="&#xbc;" horiz-adv-x="969" 
d="M692 0v89h48v25h-167l-26 85l193 171h131v-176h42v-80h-42v-25h42v-89h-221zM321 0h-107l458 679h107zM740 194v70l-80 -70h80zM105 323v98h57v137q-33 -7 -57 0v94q53 -1 80.5 9t47.5 32h68v-272h55v-98h-251z" />
    <glyph glyph-name="onehalf" unicode="&#xbd;" horiz-adv-x="969" 
d="M763 265q0 24 -36 24q-9 0 -15.5 -2.5t-10 -6t-6 -10t-3 -9.5t-1.5 -10.5t-1 -8.5l-116 3q0 125 160 125q74 0 120 -30.5t46 -80.5q0 -37 -28 -65q-30 -30 -103 -59q-57 -23 -66 -37h105l1 29h94l-4 -127h-331v23q0 69 53 122q24 24 69.5 53t58.5 42q14 14 14 25zM309 0
h-107l458 679h107zM105 323v98h57v137q-33 -7 -57 0v94q53 -1 80.5 9t47.5 32h68v-272h55v-98h-251z" />
    <glyph glyph-name="threequarters" unicode="&#xbe;" horiz-adv-x="969" 
d="M692 0v89h48v25h-167l-26 85l193 171h131v-176h42v-80h-42v-25h42v-89h-221zM321 0h-107l458 679h107zM740 194v70l-80 -70h80zM47 457l116 8q2 -32 13.5 -44t39.5 -12q43 0 43 31q0 35 -65 36v73q56 3 56 32q0 26 -37 26q-20 0 -28.5 -9t-10.5 -31l-120 6q4 62 45 91
t124 29q77 0 121 -28t44 -77q0 -41 -40 -69q29 -17 41.5 -36.5t12.5 -47.5q0 -54 -48 -85t-131 -31q-173 0 -176 138z" />
    <glyph glyph-name="questiondown" unicode="&#xbf;" horiz-adv-x="635" 
d="M399 209l12 -147h-6q-26 4 -53 4q-47 0 -74.5 -24t-27.5 -65q0 -36 23 -59t60 -23q38 0 58.5 21t20.5 59h197q-2 -88 -77 -140q-78 -54 -213 -54q-136 0 -215 52.5t-79 142.5q0 86 68 139t168 50l10 44h128zM457 474v-178h-243v178h243z" />
    <glyph glyph-name="Agrave" unicode="&#xc0;" horiz-adv-x="760" 
d="M11 0v163h51l128 353h-55v163h489v-163h-55l130 -353h50v-163h-355v149h59l-26 85h-174l-29 -85h56v-149h-269zM280 319h121l-57 188h-2zM486 745h-117l-202 175h226z" />
    <glyph glyph-name="Aacute" unicode="&#xc1;" horiz-adv-x="760" 
d="M11 0v163h51l128 353h-55v163h489v-163h-55l130 -353h50v-163h-355v149h59l-26 85h-174l-29 -85h56v-149h-269zM280 319h121l-57 188h-2zM275 745l93 175h226l-202 -175h-117z" />
    <glyph glyph-name="Acircumflex" unicode="&#xc2;" horiz-adv-x="760" 
d="M11 0v163h51l128 353h-55v163h489v-163h-55l130 -353h50v-163h-355v149h59l-26 85h-174l-29 -85h56v-149h-269zM280 319h121l-57 188h-2zM162 744l102 177h234l101 -177h-139l-79 68l-80 -68h-139z" />
    <glyph glyph-name="Atilde" unicode="&#xc3;" horiz-adv-x="760" 
d="M11 0v163h51l128 353h-55v163h489v-163h-55l130 -353h50v-163h-355v149h59l-26 85h-174l-29 -85h56v-149h-269zM280 319h121l-57 188h-2zM274 745h-109q8 81 43 126.5t91 45.5q36 0 83.5 -21.5t63.5 -21.5q32 0 42 44h108q-3 -80 -40 -127t-96 -47q-37 0 -81.5 22
t-60.5 22q-36 0 -44 -43z" />
    <glyph glyph-name="Adieresis" unicode="&#xc4;" horiz-adv-x="760" 
d="M11 0v163h51l128 353h-55v163h489v-163h-55l130 -353h50v-163h-355v149h59l-26 85h-174l-29 -85h56v-149h-269zM280 319h121l-57 188h-2zM222 940q38 0 64 -26t26 -64t-26.5 -64.5t-63.5 -26.5q-38 0 -64.5 26.5t-26.5 64.5q0 37 26.5 63.5t64.5 26.5zM540 940
q38 0 64 -26t26 -64t-26.5 -64.5t-63.5 -26.5q-38 0 -64.5 26.5t-26.5 64.5q0 37 26.5 63.5t64.5 26.5z" />
    <glyph glyph-name="Aring" unicode="&#xc5;" horiz-adv-x="760" 
d="M11 0v163h51l128 353h-55v163h489v-163h-55l130 -353h50v-163h-355v149h59l-26 85h-174l-29 -85h56v-149h-269zM280 319h121l-57 188h-2zM380 893q-21 0 -35.5 -14.5t-14.5 -35.5t14.5 -35.5t35.5 -14.5t35.5 14.5t14.5 35.5t-14.5 35.5t-35.5 14.5zM380 961
q49 0 83.5 -34.5t34.5 -83.5t-34.5 -83.5t-83.5 -34.5t-83.5 34.5t-34.5 83.5t34.5 83.5t83.5 34.5z" />
    <glyph glyph-name="AE" unicode="&#xc6;" horiz-adv-x="1094" 
d="M-13 0v163h40l189 353h-55v163h879v-216h-178v53h-157v-104h135v-138h-135v-111h157v55h178v-218h-651v163h53v111h-188l-55 -111h63v-163h-275zM438 404v135h-53l-69 -135h122z" />
    <glyph glyph-name="Ccedilla" unicode="&#xc7;" horiz-adv-x="802" 
d="M290 -191l7 59q7 -2 23 -2q50 0 50 30q0 22 -23 22q-7 0 -14 -1l10 47q28 23 60 23v2q-81 4 -144.5 29t-102 60.5t-63.5 82.5t-34.5 90.5t-9.5 88.5q0 153 94.5 253t239.5 100q118 0 193 -59v45h163v-248h-169q-15 48 -45.5 73.5t-70.5 25.5q-110 0 -110 -189
q0 -99 28 -146t86 -47q99 0 126 152l176 -63q-56 -238 -311 -248v-2q37 -4 60.5 -29.5t23.5 -60.5q0 -46 -38 -71.5t-107 -25.5q-54 0 -98 9z" />
    <glyph glyph-name="Egrave" unicode="&#xc8;" 
d="M45 0v163h53v353h-53v163h648v-217h-178v54h-154v-104h134v-138h-134v-111h154v54h178v-217h-648zM481 745h-117l-202 175h226z" />
    <glyph glyph-name="Eacute" unicode="&#xc9;" 
d="M45 0v163h53v353h-53v163h648v-217h-178v54h-154v-104h134v-138h-134v-111h154v54h178v-217h-648zM270 745l93 175h226l-202 -175h-117z" />
    <glyph glyph-name="Ecircumflex" unicode="&#xca;" 
d="M45 0v163h53v353h-53v163h648v-217h-178v54h-154v-104h134v-138h-134v-111h154v54h178v-217h-648zM157 744l102 177h234l101 -177h-139l-79 68l-80 -68h-139z" />
    <glyph glyph-name="Edieresis" unicode="&#xcb;" 
d="M45 0v163h53v353h-53v163h648v-217h-178v54h-154v-104h134v-138h-134v-111h154v54h178v-217h-648zM217 940q37 0 63.5 -26t26.5 -64t-26.5 -64.5t-63.5 -26.5t-64 26.5t-27 64.5q0 37 26.5 63.5t64.5 26.5zM535 940q37 0 63.5 -26t26.5 -64t-26.5 -64.5t-63.5 -26.5
t-64 26.5t-27 64.5q0 37 26.5 63.5t64.5 26.5z" />
    <glyph glyph-name="Igrave" unicode="&#xcc;" horiz-adv-x="458" 
d="M35 0v163h63v353h-63v163h389v-163h-63v-353h63v-163h-389zM335 745h-117l-202 175h226z" />
    <glyph glyph-name="Iacute" unicode="&#xcd;" horiz-adv-x="458" 
d="M35 0v163h63v353h-63v163h389v-163h-63v-353h63v-163h-389zM124 745l93 175h226l-202 -175h-117z" />
    <glyph glyph-name="Icircumflex" unicode="&#xce;" horiz-adv-x="458" 
d="M35 0v163h63v353h-63v163h389v-163h-63v-353h63v-163h-389zM11 744l102 177h234l101 -177h-139l-79 68l-80 -68h-139z" />
    <glyph glyph-name="Idieresis" unicode="&#xcf;" horiz-adv-x="458" 
d="M35 0v163h63v353h-63v163h389v-163h-63v-353h63v-163h-389zM71 940q37 0 63.5 -26t26.5 -64t-26.5 -64.5t-63.5 -26.5t-64 26.5t-27 64.5q0 37 26.5 63.5t64.5 26.5zM389 940q37 0 63.5 -26t26.5 -64t-26.5 -64.5t-63.5 -26.5t-64 26.5t-27 64.5q0 37 26.5 63.5
t64.5 26.5z" />
    <glyph glyph-name="Eth" unicode="&#xd0;" horiz-adv-x="875" 
d="M44 0v163h53v110h-53v138h53v105h-53v163h389q183 0 284 -97t101 -248q0 -64 -19.5 -121t-60.5 -106t-113.5 -78t-168.5 -29h-412zM360 163h39q70 0 102 42t32 131q0 96 -35.5 138t-115.5 42h-22v-105h103v-138h-103v-110z" />
    <glyph glyph-name="Ntilde" unicode="&#xd1;" horiz-adv-x="854" 
d="M33 0v163h60v353h-60v163h322l247 -355h2v192h-57v163h274v-163h-59v-527h-224l-285 413h-2v-239h61v-163h-279zM321 745h-109q8 81 43 126.5t91 45.5q36 0 83.5 -21.5t63.5 -21.5q32 0 42 44h108q-3 -80 -40 -127t-96 -47q-37 0 -81.5 22t-60.5 22q-36 0 -44 -43z" />
    <glyph glyph-name="Ograve" unicode="&#xd2;" horiz-adv-x="865" 
d="M49 341q0 62 23.5 122.5t68 113t120.5 84.5t171 32t171 -32t120.5 -84.5t68 -113t23.5 -122.5t-23.5 -122.5t-68 -113t-120.5 -84.5t-171 -32t-171 32t-120.5 84.5t-68 113t-23.5 122.5zM344 341q0 -102 18.5 -147.5t69.5 -45.5t69.5 45.5t18.5 147.5t-18.5 147.5
t-69.5 45.5t-69.5 -45.5t-18.5 -147.5zM538 745h-117l-202 175h226z" />
    <glyph glyph-name="Oacute" unicode="&#xd3;" horiz-adv-x="865" 
d="M49 341q0 62 23.5 122.5t68 113t120.5 84.5t171 32t171 -32t120.5 -84.5t68 -113t23.5 -122.5t-23.5 -122.5t-68 -113t-120.5 -84.5t-171 -32t-171 32t-120.5 84.5t-68 113t-23.5 122.5zM344 341q0 -102 18.5 -147.5t69.5 -45.5t69.5 45.5t18.5 147.5t-18.5 147.5
t-69.5 45.5t-69.5 -45.5t-18.5 -147.5zM327 745l93 175h226l-202 -175h-117z" />
    <glyph glyph-name="Ocircumflex" unicode="&#xd4;" horiz-adv-x="865" 
d="M49 341q0 62 23.5 122.5t68 113t120.5 84.5t171 32t171 -32t120.5 -84.5t68 -113t23.5 -122.5t-23.5 -122.5t-68 -113t-120.5 -84.5t-171 -32t-171 32t-120.5 84.5t-68 113t-23.5 122.5zM344 341q0 -102 18.5 -147.5t69.5 -45.5t69.5 45.5t18.5 147.5t-18.5 147.5
t-69.5 45.5t-69.5 -45.5t-18.5 -147.5zM214 744l102 177h234l101 -177h-139l-79 68l-80 -68h-139z" />
    <glyph glyph-name="Otilde" unicode="&#xd5;" horiz-adv-x="865" 
d="M49 341q0 62 23.5 122.5t68 113t120.5 84.5t171 32t171 -32t120.5 -84.5t68 -113t23.5 -122.5t-23.5 -122.5t-68 -113t-120.5 -84.5t-171 -32t-171 32t-120.5 84.5t-68 113t-23.5 122.5zM344 341q0 -102 18.5 -147.5t69.5 -45.5t69.5 45.5t18.5 147.5t-18.5 147.5
t-69.5 45.5t-69.5 -45.5t-18.5 -147.5zM326 745h-109q8 81 43 126.5t91 45.5q36 0 83.5 -21.5t63.5 -21.5q32 0 42 44h108q-3 -80 -40 -127t-96 -47q-37 0 -81.5 22t-60.5 22q-36 0 -44 -43z" />
    <glyph glyph-name="Odieresis" unicode="&#xd6;" horiz-adv-x="865" 
d="M49 341q0 62 23.5 122.5t68 113t120.5 84.5t171 32t171 -32t120.5 -84.5t68 -113t23.5 -122.5t-23.5 -122.5t-68 -113t-120.5 -84.5t-171 -32t-171 32t-120.5 84.5t-68 113t-23.5 122.5zM344 341q0 -102 18.5 -147.5t69.5 -45.5t69.5 45.5t18.5 147.5t-18.5 147.5
t-69.5 45.5t-69.5 -45.5t-18.5 -147.5zM274 940q38 0 64 -26t26 -64t-26.5 -64.5t-63.5 -26.5q-38 0 -64.5 26.5t-26.5 64.5q0 37 26.5 63.5t64.5 26.5zM592 940q38 0 64 -26t26 -64t-26.5 -64.5t-63.5 -26.5q-38 0 -64.5 26.5t-26.5 64.5q0 37 26.5 63.5t64.5 26.5z" />
    <glyph glyph-name="multiply" unicode="&#xd7;" horiz-adv-x="667" 
d="M60 498l112 112l161 -161l161 161l112 -112l-161 -161l161 -161l-112 -112l-161 161l-161 -161l-112 112l161 161z" />
    <glyph glyph-name="Oslash" unicode="&#xd8;" horiz-adv-x="865" 
d="M432 148q50 0 69.5 45.5t19.5 147.5q0 33 -1 40l-157 -187q20 -46 69 -46zM432 -11q-112 0 -203 47l-39 -50l-70 56l36 46q-107 96 -107 247t104.5 254.5t278.5 103.5q53 0 108.5 -12.5t88.5 -32.5l38 45l70 -54l-35 -42q114 -102 114 -262q0 -149 -107 -247.5
t-277 -98.5zM432 534q-49 0 -68.5 -46t-19.5 -147q0 -21 1 -30l154 183q-23 40 -67 40z" />
    <glyph glyph-name="Ugrave" unicode="&#xd9;" horiz-adv-x="729" 
d="M28 516v163h348v-163h-33v-250q0 -25 2 -41.5t8.5 -36t21.5 -30t39 -10.5q37 0 51 26.5t14 96.5v245h-34v163h255v-163h-53v-264q0 -127 -70.5 -195t-209.5 -68q-143 0 -215 66t-72 215v246h-52zM470 745h-117l-202 175h226z" />
    <glyph glyph-name="Uacute" unicode="&#xda;" horiz-adv-x="729" 
d="M28 516v163h348v-163h-33v-250q0 -25 2 -41.5t8.5 -36t21.5 -30t39 -10.5q37 0 51 26.5t14 96.5v245h-34v163h255v-163h-53v-264q0 -127 -70.5 -195t-209.5 -68q-143 0 -215 66t-72 215v246h-52zM259 745l93 175h226l-202 -175h-117z" />
    <glyph glyph-name="Ucircumflex" unicode="&#xdb;" horiz-adv-x="729" 
d="M28 516v163h348v-163h-33v-250q0 -25 2 -41.5t8.5 -36t21.5 -30t39 -10.5q37 0 51 26.5t14 96.5v245h-34v163h255v-163h-53v-264q0 -127 -70.5 -195t-209.5 -68q-143 0 -215 66t-72 215v246h-52zM146 744l102 177h234l101 -177h-139l-79 68l-80 -68h-139z" />
    <glyph glyph-name="Udieresis" unicode="&#xdc;" horiz-adv-x="729" 
d="M28 516v163h348v-163h-33v-250q0 -25 2 -41.5t8.5 -36t21.5 -30t39 -10.5q37 0 51 26.5t14 96.5v245h-34v163h255v-163h-53v-264q0 -127 -70.5 -195t-209.5 -68q-143 0 -215 66t-72 215v246h-52zM206 940q38 0 64 -26t26 -64t-26.5 -64.5t-63.5 -26.5q-38 0 -64.5 26.5
t-26.5 64.5q0 37 26.5 63.5t64.5 26.5zM524 940q38 0 64 -26t26 -64t-26.5 -64.5t-63.5 -26.5q-38 0 -64.5 26.5t-26.5 64.5q0 37 26.5 63.5t64.5 26.5z" />
    <glyph glyph-name="Yacute" unicode="&#xdd;" horiz-adv-x="729" 
d="M181 0v163h54v108l-171 245h-46v163h355v-163h-40l71 -138l87 138h-41v163h261v-163h-43l-170 -245v-108h54v-163h-371zM259 745l93 175h226l-202 -175h-117z" />
    <glyph glyph-name="Thorn" unicode="&#xde;" horiz-adv-x="823" 
d="M373 589v-39h129q152 0 225 -60.5t73 -153.5q0 -27 -6.5 -53t-25 -55t-47.5 -50t-78.5 -35t-112.5 -14h-157v-39h68v-90h-397v90h66v499h-66v90h395v-90h-66zM373 278h72q80 0 80 62q0 32 -20 46.5t-68 14.5h-64v-123z" />
    <glyph glyph-name="germandbls" unicode="&#xdf;" horiz-adv-x="792" 
d="M27 0v149h60v300q0 244 333 244q144 0 226.5 -45t82.5 -132q0 -48 -29.5 -84.5t-79.5 -49.5v-2q133 -48 133 -177q0 -38 -12 -74t-36 -67.5t-68 -51t-101 -19.5q-61 0 -116 20v113q10 -3 20 -3q64 0 64 89q0 56 -22 81t-75 28v111q35 0 55.5 19t20.5 51t-21 52t-54 20
q-42 0 -58.5 -29.5t-16.5 -85.5v-308h35v-149h-341z" />
    <glyph glyph-name="agrave" unicode="&#xe0;" 
d="M231 340l-192 20q29 70 100 99t209 29q168 0 240.5 -40t72.5 -137v-162h62v-149h-308v42q-18 -16 -32 -25t-50 -17.5t-87 -8.5q-102 0 -152.5 44t-50.5 104q0 68 63 110t163 42q93 0 146 -25v43q0 33 -24 55t-68 22q-60 0 -92 -46zM415 121v86q-35 18 -69 18
q-32 0 -51.5 -18t-19.5 -46q0 -33 20 -50.5t46 -17.5q43 0 74 28zM481 544h-117l-202 175h226z" />
    <glyph glyph-name="aacute" unicode="&#xe1;" 
d="M231 340l-192 20q29 70 100 99t209 29q168 0 240.5 -40t72.5 -137v-162h62v-149h-308v42q-18 -16 -32 -25t-50 -17.5t-87 -8.5q-102 0 -152.5 44t-50.5 104q0 68 63 110t163 42q93 0 146 -25v43q0 33 -24 55t-68 22q-60 0 -92 -46zM415 121v86q-35 18 -69 18
q-32 0 -51.5 -18t-19.5 -46q0 -33 20 -50.5t46 -17.5q43 0 74 28zM270 544l93 175h226l-202 -175h-117z" />
    <glyph glyph-name="acircumflex" unicode="&#xe2;" 
d="M231 340l-192 20q29 70 100 99t209 29q168 0 240.5 -40t72.5 -137v-162h62v-149h-308v42q-18 -16 -32 -25t-50 -17.5t-87 -8.5q-102 0 -152.5 44t-50.5 104q0 68 63 110t163 42q93 0 146 -25v43q0 33 -24 55t-68 22q-60 0 -92 -46zM415 121v86q-35 18 -69 18
q-32 0 -51.5 -18t-19.5 -46q0 -33 20 -50.5t46 -17.5q43 0 74 28zM157 543l102 177h234l101 -177h-139l-79 68l-80 -68h-139z" />
    <glyph glyph-name="atilde" unicode="&#xe3;" 
d="M231 340l-192 20q29 70 100 99t209 29q168 0 240.5 -40t72.5 -137v-162h62v-149h-308v42q-18 -16 -32 -25t-50 -17.5t-87 -8.5q-102 0 -152.5 44t-50.5 104q0 68 63 110t163 42q93 0 146 -25v43q0 33 -24 55t-68 22q-60 0 -92 -46zM415 121v86q-35 18 -69 18
q-32 0 -51.5 -18t-19.5 -46q0 -33 20 -50.5t46 -17.5q43 0 74 28zM269 544h-109q8 81 43 126.5t91 45.5q36 0 83.5 -21.5t63.5 -21.5q32 0 42 44h108q-3 -80 -40 -127t-96 -47q-37 0 -81.5 22t-60.5 22q-36 0 -44 -43z" />
    <glyph glyph-name="adieresis" unicode="&#xe4;" 
d="M231 340l-192 20q29 70 100 99t209 29q168 0 240.5 -40t72.5 -137v-162h62v-149h-308v42q-18 -16 -32 -25t-50 -17.5t-87 -8.5q-102 0 -152.5 44t-50.5 104q0 68 63 110t163 42q93 0 146 -25v43q0 33 -24 55t-68 22q-60 0 -92 -46zM415 121v86q-35 18 -69 18
q-32 0 -51.5 -18t-19.5 -46q0 -33 20 -50.5t46 -17.5q43 0 74 28zM217 739q37 0 63.5 -26.5t26.5 -63.5q0 -38 -26.5 -64.5t-63.5 -26.5t-64 27t-27 64t26.5 63.5t64.5 26.5zM535 739q37 0 63.5 -26.5t26.5 -63.5q0 -38 -26.5 -64.5t-63.5 -26.5t-64 27t-27 64t26.5 63.5
t64.5 26.5z" />
    <glyph glyph-name="aring" unicode="&#xe5;" 
d="M231 340l-192 20q29 70 100 99t209 29q168 0 240.5 -40t72.5 -137v-162h62v-149h-308v42q-18 -16 -32 -25t-50 -17.5t-87 -8.5q-102 0 -152.5 44t-50.5 104q0 68 63 110t163 42q93 0 146 -25v43q0 33 -24 55t-68 22q-60 0 -92 -46zM415 121v86q-35 18 -69 18
q-32 0 -51.5 -18t-19.5 -46q0 -33 20 -50.5t46 -17.5q43 0 74 28zM375 692q-21 0 -35.5 -14.5t-14.5 -35.5t14.5 -35.5t35.5 -14.5t35.5 14.5t14.5 35.5t-14.5 35.5t-35.5 14.5zM375 760q49 0 83.5 -34.5t34.5 -83.5t-34.5 -83.5t-83.5 -34.5t-83.5 34.5t-34.5 83.5
t34.5 83.5t83.5 34.5z" />
    <glyph glyph-name="ae" unicode="&#xe6;" horiz-adv-x="1073" 
d="M817 151l205 -25q-28 -67 -100 -103.5t-176 -36.5q-180 0 -262 89q-93 -89 -233 -89q-94 0 -151.5 40t-57.5 107q0 66 63 109t162 43q86 0 148 -24q1 71 -17 98t-77 27q-61 0 -89 -45l-191 18q48 129 310 129q146 0 217 -45q73 45 163 45q145 0 225 -77.5t77 -198.5h-372
q4 -115 87 -115q45 0 69 54zM415 105v83q-30 19 -71 19q-31 0 -50.5 -17.5t-19.5 -45.5t19.5 -46.5t48.5 -18.5q39 0 73 26zM661 272h140q2 49 -16 78t-55 29q-69 0 -69 -107z" />
    <glyph glyph-name="ccedilla" unicode="&#xe7;" horiz-adv-x="688" 
d="M231 -191l7 59q7 -2 23 -2q50 0 50 30q0 22 -23 22q-7 0 -14 -1l10 47q22 19 48 23v2q-132 6 -210 72t-78 172t81 177.5t201 71.5q87 0 155 -48v40h150v-202h-150q-30 83 -94 83q-42 0 -68 -34.5t-26 -88.5t25.5 -86.5t68.5 -32.5q69 0 84 82l183 -41q-22 -74 -87.5 -117
t-165.5 -48v-2q32 -8 52.5 -32.5t20.5 -57.5q0 -46 -38 -71.5t-107 -25.5q-55 0 -98 9z" />
    <glyph glyph-name="egrave" unicode="&#xe8;" horiz-adv-x="698" 
d="M440 149l203 -24q-30 -67 -101 -103t-172 -36q-165 0 -245.5 71t-80.5 177q0 113 84.5 183.5t219.5 70.5q60 0 112 -15t96.5 -46t70.5 -86t27 -129h-373q1 -56 23.5 -85.5t63.5 -29.5q51 0 72 52zM423 274q3 51 -17.5 78t-53.5 27t-51.5 -30t-16.5 -75h139zM455 544h-117
l-202 175h226z" />
    <glyph glyph-name="eacute" unicode="&#xe9;" horiz-adv-x="698" 
d="M440 149l203 -24q-30 -67 -101 -103t-172 -36q-165 0 -245.5 71t-80.5 177q0 113 84.5 183.5t219.5 70.5q60 0 112 -15t96.5 -46t70.5 -86t27 -129h-373q1 -56 23.5 -85.5t63.5 -29.5q51 0 72 52zM423 274q3 51 -17.5 78t-53.5 27t-51.5 -30t-16.5 -75h139zM244 544
l93 175h226l-202 -175h-117z" />
    <glyph glyph-name="ecircumflex" unicode="&#xea;" horiz-adv-x="698" 
d="M440 149l203 -24q-30 -67 -101 -103t-172 -36q-165 0 -245.5 71t-80.5 177q0 113 84.5 183.5t219.5 70.5q60 0 112 -15t96.5 -46t70.5 -86t27 -129h-373q1 -56 23.5 -85.5t63.5 -29.5q51 0 72 52zM423 274q3 51 -17.5 78t-53.5 27t-51.5 -30t-16.5 -75h139zM131 543
l102 177h234l101 -177h-139l-79 68l-80 -68h-139z" />
    <glyph glyph-name="edieresis" unicode="&#xeb;" horiz-adv-x="698" 
d="M440 149l203 -24q-30 -67 -101 -103t-172 -36q-165 0 -245.5 71t-80.5 177q0 113 84.5 183.5t219.5 70.5q60 0 112 -15t96.5 -46t70.5 -86t27 -129h-373q1 -56 23.5 -85.5t63.5 -29.5q51 0 72 52zM423 274q3 51 -17.5 78t-53.5 27t-51.5 -30t-16.5 -75h139zM191 739
q37 0 63.5 -26.5t26.5 -63.5q0 -38 -26.5 -64.5t-63.5 -26.5t-64 27t-27 64t26.5 63.5t64.5 26.5zM509 739q37 0 63.5 -26.5t26.5 -63.5q0 -38 -26.5 -64.5t-63.5 -26.5t-64 27t-27 64t26.5 63.5t64.5 26.5z" />
    <glyph glyph-name="igrave" unicode="&#xec;" horiz-adv-x="406" 
d="M35 0v149h49v176h-49v149h295v-325h41v-149h-336zM309 544h-117l-202 175h226z" />
    <glyph glyph-name="iacute" unicode="&#xed;" horiz-adv-x="406" 
d="M35 0v149h49v176h-49v149h295v-325h41v-149h-336zM98 544l93 175h226l-202 -175h-117z" />
    <glyph glyph-name="icircumflex" unicode="&#xee;" horiz-adv-x="406" 
d="M35 0v149h49v176h-49v149h295v-325h41v-149h-336zM-15 543l102 177h234l101 -177h-139l-79 68l-80 -68h-139z" />
    <glyph glyph-name="idieresis" unicode="&#xef;" horiz-adv-x="406" 
d="M35 0v149h49v176h-49v149h295v-325h41v-149h-336zM45 739q37 0 63.5 -26.5t26.5 -63.5q0 -38 -26.5 -64.5t-63.5 -26.5t-64 27t-27 64t26.5 63.5t64.5 26.5zM363 739q37 0 63.5 -26.5t26.5 -63.5q0 -38 -26.5 -64.5t-63.5 -26.5t-64 27t-27 64t26.5 63.5t64.5 26.5z" />
    <glyph glyph-name="eth" unicode="&#xf0;" horiz-adv-x="758" 
d="M167 551l148 48q-40 23 -97 48l137 46q65 -9 128 -39l117 39l68 -38l-123 -40q69 -46 117.5 -129.5t48.5 -179.5q0 -154 -84.5 -237t-247.5 -83q-148 0 -240 70.5t-92 185.5q0 107 79 176.5t190 69.5q75 0 114 -28l2 2q-12 54 -64 95l-133 -44zM296 236q0 -53 21 -81.5
t60 -28.5q41 0 63 29.5t22 84.5q0 51 -21.5 79.5t-59.5 28.5q-40 0 -62.5 -29.5t-22.5 -82.5z" />
    <glyph glyph-name="ntilde" unicode="&#xf1;" horiz-adv-x="802" 
d="M33 0v149h62v176h-62v149h308v-66q97 74 194 74q86 0 134.5 -48t48.5 -150v-135h56v-149h-302v248q0 74 -60 74q-35 0 -71 -24v-149h69v-149h-377zM295 544h-109q8 81 43 126.5t91 45.5q36 0 83.5 -21.5t63.5 -21.5q32 0 42 44h108q-3 -80 -40 -127t-96 -47
q-37 0 -81.5 22t-60.5 22q-36 0 -44 -43z" />
    <glyph glyph-name="ograve" unicode="&#xf2;" 
d="M43 237q0 117 97.5 184t234.5 67q60 0 116.5 -14.5t106 -43.5t79.5 -79t30 -114q0 -78 -47.5 -136.5t-121.5 -86.5t-163 -28q-139 0 -235.5 66.5t-96.5 184.5zM292 236q0 -53 21 -81.5t60 -28.5q41 0 63 29.5t22 84.5q0 51 -21.5 79.5t-59.5 28.5q-40 0 -62.5 -29.5
t-22.5 -82.5zM481 544h-117l-202 175h226z" />
    <glyph glyph-name="oacute" unicode="&#xf3;" 
d="M43 237q0 117 97.5 184t234.5 67q60 0 116.5 -14.5t106 -43.5t79.5 -79t30 -114q0 -78 -47.5 -136.5t-121.5 -86.5t-163 -28q-139 0 -235.5 66.5t-96.5 184.5zM292 236q0 -53 21 -81.5t60 -28.5q41 0 63 29.5t22 84.5q0 51 -21.5 79.5t-59.5 28.5q-40 0 -62.5 -29.5
t-22.5 -82.5zM270 544l93 175h226l-202 -175h-117z" />
    <glyph glyph-name="ocircumflex" unicode="&#xf4;" 
d="M43 237q0 117 97.5 184t234.5 67q60 0 116.5 -14.5t106 -43.5t79.5 -79t30 -114q0 -78 -47.5 -136.5t-121.5 -86.5t-163 -28q-139 0 -235.5 66.5t-96.5 184.5zM292 236q0 -53 21 -81.5t60 -28.5q41 0 63 29.5t22 84.5q0 51 -21.5 79.5t-59.5 28.5q-40 0 -62.5 -29.5
t-22.5 -82.5zM157 543l102 177h234l101 -177h-139l-79 68l-80 -68h-139z" />
    <glyph glyph-name="otilde" unicode="&#xf5;" 
d="M43 237q0 117 97.5 184t234.5 67q60 0 116.5 -14.5t106 -43.5t79.5 -79t30 -114q0 -78 -47.5 -136.5t-121.5 -86.5t-163 -28q-139 0 -235.5 66.5t-96.5 184.5zM292 236q0 -53 21 -81.5t60 -28.5q41 0 63 29.5t22 84.5q0 51 -21.5 79.5t-59.5 28.5q-40 0 -62.5 -29.5
t-22.5 -82.5zM269 544h-109q8 81 43 126.5t91 45.5q36 0 83.5 -21.5t63.5 -21.5q32 0 42 44h108q-3 -80 -40 -127t-96 -47q-37 0 -81.5 22t-60.5 22q-36 0 -44 -43z" />
    <glyph glyph-name="odieresis" unicode="&#xf6;" 
d="M43 237q0 117 97.5 184t234.5 67q60 0 116.5 -14.5t106 -43.5t79.5 -79t30 -114q0 -78 -47.5 -136.5t-121.5 -86.5t-163 -28q-139 0 -235.5 66.5t-96.5 184.5zM292 236q0 -53 21 -81.5t60 -28.5q41 0 63 29.5t22 84.5q0 51 -21.5 79.5t-59.5 28.5q-40 0 -62.5 -29.5
t-22.5 -82.5zM217 739q37 0 63.5 -26.5t26.5 -63.5q0 -38 -26.5 -64.5t-63.5 -26.5t-64 27t-27 64t26.5 63.5t64.5 26.5zM535 739q37 0 63.5 -26.5t26.5 -63.5q0 -38 -26.5 -64.5t-63.5 -26.5t-64 27t-27 64t26.5 63.5t64.5 26.5z" />
    <glyph glyph-name="divide" unicode="&#xf7;" horiz-adv-x="668" 
d="M334 224q38 0 64 -26t26 -64t-26.5 -64.5t-63.5 -26.5q-38 0 -64.5 26.5t-26.5 64.5q0 37 26.5 63.5t64.5 26.5zM334 635q38 0 64 -26.5t26 -63.5q0 -38 -26.5 -64.5t-63.5 -26.5q-38 0 -64.5 27t-26.5 64t26.5 63.5t64.5 26.5zM53 418h561v-158h-561v158z" />
    <glyph glyph-name="oslash" unicode="&#xf8;" 
d="M548 456l54 54l55 -39l-49 -49q27 -21 36 -31q63 -68 63 -155q0 -110 -92 -180t-237 -70q-94 0 -175 31l-53 -53l-55 39l47 47q-99 73 -99 188q0 110 91.5 180t235.5 70q97 0 178 -32zM294 202l131 131q-20 15 -48 15q-85 0 -85 -113q0 -7 2 -33zM456 270l-130 -130
q21 -14 47 -14q40 0 62.5 30t22.5 84q0 8 -2 30z" />
    <glyph glyph-name="ugrave" unicode="&#xf9;" horiz-adv-x="792" 
d="M23 325v149h303v-247q0 -40 12.5 -58t42.5 -18q40 0 75 22v152h-64v149h310v-325h57v-149h-303v60q-96 -69 -199 -69q-78 0 -127.5 50.5t-49.5 152.5v131h-57zM502 544h-117l-202 175h226z" />
    <glyph glyph-name="uacute" unicode="&#xfa;" horiz-adv-x="792" 
d="M23 325v149h303v-247q0 -40 12.5 -58t42.5 -18q40 0 75 22v152h-64v149h310v-325h57v-149h-303v60q-96 -69 -199 -69q-78 0 -127.5 50.5t-49.5 152.5v131h-57zM291 544l93 175h226l-202 -175h-117z" />
    <glyph glyph-name="ucircumflex" unicode="&#xfb;" horiz-adv-x="792" 
d="M23 325v149h303v-247q0 -40 12.5 -58t42.5 -18q40 0 75 22v152h-64v149h310v-325h57v-149h-303v60q-96 -69 -199 -69q-78 0 -127.5 50.5t-49.5 152.5v131h-57zM178 543l102 177h234l101 -177h-139l-79 68l-80 -68h-139z" />
    <glyph glyph-name="udieresis" unicode="&#xfc;" horiz-adv-x="792" 
d="M23 325v149h303v-247q0 -40 12.5 -58t42.5 -18q40 0 75 22v152h-64v149h310v-325h57v-149h-303v60q-96 -69 -199 -69q-78 0 -127.5 50.5t-49.5 152.5v131h-57zM238 739q38 0 64 -26.5t26 -63.5q0 -38 -26.5 -64.5t-63.5 -26.5q-38 0 -64.5 27t-26.5 64t26.5 63.5
t64.5 26.5zM556 739q38 0 64 -26.5t26 -63.5q0 -38 -26.5 -64.5t-63.5 -26.5q-38 0 -64.5 27t-26.5 64t26.5 63.5t64.5 26.5z" />
    <glyph glyph-name="yacute" unicode="&#xfd;" horiz-adv-x="656" 
d="M125 -218v149h80l24 44l-182 350h-37v149h323v-149h-52l83 -186l75 186h-46v149h245v-149h-47l-259 -543h-207zM223 544l93 175h226l-202 -175h-117z" />
    <glyph glyph-name="thorn" unicode="&#xfe;" horiz-adv-x="802" 
d="M36 679h303v-238q77 41 160 41q111 0 184 -70.5t73 -177.5q0 -109 -72.5 -176t-191.5 -67q-89 0 -153 39v-99h62v-149h-365v149h57v599h-57v149zM339 236q0 -50 21 -77.5t60 -27.5q38 0 62.5 26.5t24.5 83.5q0 100 -84 100q-40 0 -62 -27.5t-22 -77.5z" />
    <glyph glyph-name="ydieresis" unicode="&#xff;" horiz-adv-x="656" 
d="M125 -218v149h80l24 44l-182 350h-37v149h323v-149h-52l83 -186l75 186h-46v149h245v-149h-47l-259 -543h-207zM170 739q38 0 64 -26.5t26 -63.5q0 -38 -26.5 -64.5t-63.5 -26.5q-38 0 -64.5 27t-26.5 64t26.5 63.5t64.5 26.5zM488 739q38 0 64 -26.5t26 -63.5
q0 -38 -26.5 -64.5t-63.5 -26.5q-38 0 -64.5 27t-26.5 64t26.5 63.5t64.5 26.5z" />
    <glyph glyph-name="dotlessi" unicode="&#x131;" horiz-adv-x="406" 
d="M35 0v149h49v176h-49v149h295v-325h41v-149h-336z" />
    <glyph glyph-name="Lslash" unicode="&#x141;" horiz-adv-x="698" 
d="M35 0v163h61v89l-61 -20v93l61 20v171h-61v163h388v-163h-64v-84l125 41v-93l-125 -41v-176h160v109h163v-272h-647z" />
    <glyph glyph-name="lslash" unicode="&#x142;" horiz-adv-x="406" 
d="M83 245l-73 -47v95l73 47v190h-50v149h296v-184l67 41v-95l-67 -41v-251h44v-149h-340v149h50v96z" />
    <glyph glyph-name="OE" unicode="&#x152;" horiz-adv-x="1156" 
d="M1099 218v-218h-674q-85 0 -152 21.5t-107.5 55.5t-67.5 80t-37 91t-10 92q0 66 19.5 124t61.5 107.5t119 78.5t181 29h667v-217h-178v54h-157v-104h135v-138h-135v-111h157v55h178zM501 516h-42q-145 0 -145 -183q0 -78 35.5 -124t104.5 -46h47v353z" />
    <glyph glyph-name="oe" unicode="&#x153;" horiz-adv-x="1115" 
d="M863 149l201 -26q-28 -60 -96 -98.5t-178 -38.5q-128 0 -210 45q-71 -45 -215 -45q-92 0 -159 26t-101 67t-49 81.5t-15 79.5q0 112 90 180t239 68q142 0 210 -53q64 53 195 53q138 0 218.5 -73.5t81.5 -202.5h-371q-4 -52 19.5 -83.5t65.5 -31.5q44 0 74 52zM704 272
h140q0 50 -18.5 78.5t-51.5 28.5q-65 0 -70 -107zM290 236q0 -52 22.5 -81t62.5 -29t61.5 29.5t21.5 83.5q0 50 -22.5 79.5t-59.5 29.5q-40 0 -63 -30t-23 -82z" />
    <glyph glyph-name="Scaron" unicode="&#x160;" horiz-adv-x="625" 
d="M45 0v218h153q30 -89 104 -89q25 0 39.5 12t14.5 32q0 19 -17 36q-18 18 -107.5 57t-129.5 79q-62 62 -62 142q0 90 59 145.5t154 55.5q89 0 151 -51v42h153v-193h-153l-3 9q-30 71 -95 71q-23 0 -36.5 -11t-13.5 -31q0 -18 12 -30t60 -33t105.5 -52t91.5 -65
q23 -23 41 -62.5t18 -84.5q0 -88 -64 -147t-159 -59q-90 0 -163 54v-45h-153zM531 921l-102 -177h-234l-101 177h139l79 -68l80 68h139z" />
    <glyph glyph-name="scaron" unicode="&#x161;" horiz-adv-x="615" 
d="M59 -6v151h142q33 -33 59 -45.5t61 -12.5q29 0 47 7.5t18 19.5q0 9 -6.5 15.5t-20 11.5t-24 7.5t-30 6.5t-26.5 6q-160 37 -205 86q-30 34 -30 83q0 72 51.5 112.5t144.5 40.5q51 0 92.5 -14.5t54.5 -29.5v35h150v-138h-139q-56 50 -126 50q-53 0 -53 -31q0 -5 3 -9
t9.5 -7.5t14 -5.5t21.5 -5t26 -5t32 -6t36 -7q129 -26 177 -74q33 -33 33 -85q0 -46 -20 -79.5t-53.5 -50t-67 -23.5t-69.5 -7q-21 0 -40 2.5t-31.5 5t-27.5 8t-20 8t-17.5 9.5t-13.5 7v-37h-152zM526 720l-102 -177h-234l-101 177h139l79 -68l80 68h139z" />
    <glyph glyph-name="Ydieresis" unicode="&#x178;" horiz-adv-x="729" 
d="M181 0v163h54v108l-171 245h-46v163h355v-163h-40l71 -138l87 138h-41v163h261v-163h-43l-170 -245v-108h54v-163h-371zM206 940q38 0 64 -26t26 -64t-26.5 -64.5t-63.5 -26.5q-38 0 -64.5 26.5t-26.5 64.5q0 37 26.5 63.5t64.5 26.5zM524 940q38 0 64 -26t26 -64
t-26.5 -64.5t-63.5 -26.5q-38 0 -64.5 26.5t-26.5 64.5q0 37 26.5 63.5t64.5 26.5z" />
    <glyph glyph-name="Zcaron" unicode="&#x17d;" horiz-adv-x="729" 
d="M29 0v156l335 374h-170v-84h-156v233h659v-138l-351 -392h197v93h156v-242h-670zM583 921l-102 -177h-234l-101 177h139l79 -68l80 68h139z" />
    <glyph glyph-name="zcaron" unicode="&#x17e;" horiz-adv-x="656" 
d="M40 0v125l266 237h-161v-55h-101v167h572v-117l-270 -245h163v57h102v-169h-571zM547 720l-102 -177h-234l-101 177h139l79 -68l80 68h139z" />
    <glyph glyph-name="florin" unicode="&#x192;" horiz-adv-x="552" 
d="M479 468l-33 -155h-65l-80 -344q-21 -92 -63 -139.5t-112 -47.5h-119l28 135q33 2 47.5 17.5t25.5 61.5l75 317h-62l34 155h63l14 69q14 71 59.5 113.5t109.5 42.5h146l-28 -132q-48 3 -68 -10t-28 -50l-7 -33h63z" />
    <glyph glyph-name="circumflex" unicode="&#x2c6;" horiz-adv-x="333" 
d="M-52 543l102 177h234l101 -177h-139l-79 68l-80 -68h-139z" />
    <glyph glyph-name="caron" unicode="&#x2c7;" horiz-adv-x="333" 
d="M385 720l-102 -177h-234l-101 177h139l79 -68l80 68h139z" />
    <glyph glyph-name="uni02C9" unicode="&#x2c9;" horiz-adv-x="333" 
d="M-83 686h500v-106h-500v106z" />
    <glyph glyph-name="breve" unicode="&#x2d8;" horiz-adv-x="333" 
d="M-52 715h113q5 -24 35 -39t74 -15q80 0 102 54h113q-9 -80 -67.5 -125t-156.5 -45q-91 0 -148 45t-65 125z" />
    <glyph glyph-name="dotaccent" unicode="&#x2d9;" horiz-adv-x="333" 
d="M167 740q37 0 63.5 -26t26.5 -64t-26.5 -64.5t-63.5 -26.5t-64 26.5t-27 64.5q0 37 26.5 63.5t64.5 26.5z" />
    <glyph glyph-name="ring" unicode="&#x2da;" horiz-adv-x="333" 
d="M166 692q-21 0 -35.5 -14.5t-14.5 -35.5t14.5 -35.5t35.5 -14.5t35.5 14.5t14.5 35.5t-14.5 35.5t-35.5 14.5zM166 760q49 0 83.5 -34.5t34.5 -83.5t-34.5 -83.5t-83.5 -34.5t-83.5 34.5t-34.5 83.5t34.5 83.5t83.5 34.5z" />
    <glyph glyph-name="ogonek" unicode="&#x2db;" horiz-adv-x="333" 
d="M57 13h110q-12 -48 -12 -71q0 -36 18.5 -52t59.5 -16q33 0 78 13v-83q-76 -22 -128 -22q-72 0 -114 30.5t-42 83.5q0 43 30 117z" />
    <glyph glyph-name="tilde" unicode="&#x2dc;" horiz-adv-x="333" 
d="M60 544h-109q8 81 43 126.5t91 45.5q36 0 83.5 -21.5t63.5 -21.5q32 0 42 44h108q-3 -80 -40 -127t-96 -47q-37 0 -81.5 22t-60.5 22q-36 0 -44 -43z" />
    <glyph glyph-name="hungarumlaut" unicode="&#x2dd;" horiz-adv-x="333" 
d="M238 544l93 175h226l-202 -175h-117zM-48 544l93 175h226l-202 -175h-117z" />
    <glyph glyph-name="uni03A9" unicode="&#x3a9;" horiz-adv-x="883" 
d="M205 132v3q-61 37 -104.5 100.5t-43.5 148.5q0 129 106.5 216t279.5 87t277.5 -88t104.5 -216q0 -152 -152 -248v-3h165v-132h-355v102q77 46 111 97q45 63 45 152q0 86 -54 146t-141 60q-85 0 -142 -57.5t-57 -152.5q0 -82 42.5 -147t113.5 -98v-102h-357v132h161z" />
    <glyph glyph-name="uni03BC" unicode="&#x3bc;" horiz-adv-x="667" 
d="M59 -218v692h200v-234q0 -94 66 -94q56 0 83 47v281h200v-474h-195v60h-3q-34 -74 -105 -74q-29 0 -46 14v-218h-200z" />
    <glyph glyph-name="pi" unicode="&#x3c0;" horiz-adv-x="736" 
d="M707 375h-75v-205q0 -109 13 -170h-181q-20 24 -20 155v220h-132q-2 -94 -20.5 -209.5t-42.5 -165.5h-183q25 74 44.5 186t18.5 189q-77 0 -111 -9l-18 105q40 38 207 38h516z" />
    <glyph glyph-name="uni2010" unicode="&#x2010;" horiz-adv-x="448" 
d="M50 131v211h348v-211h-348z" />
    <glyph glyph-name="endash" unicode="&#x2013;" horiz-adv-x="500" 
d="M-6 404h512v-190h-512v190z" />
    <glyph glyph-name="emdash" unicode="&#x2014;" horiz-adv-x="1000" 
d="M-6 404h1012v-190h-1012v190z" />
    <glyph glyph-name="quoteleft" unicode="&#x2018;" horiz-adv-x="396" 
d="M320 678v-96q-54 0 -73.5 -21.5t-18.5 -79.5h92v-178h-243v217q0 77 52 118.5t145 41.5q30 0 46 -2z" />
    <glyph glyph-name="quoteright" unicode="&#x2019;" horiz-adv-x="396" 
d="M76 304v96q54 0 73.5 21.5t18.5 79.5h-92v178h243v-217q0 -77 -52 -118.5t-145 -41.5q-30 0 -46 2z" />
    <glyph glyph-name="quotesinglbase" unicode="&#x201a;" horiz-adv-x="396" 
d="M76 -197v96q54 0 73.5 21.5t18.5 79.5h-92v178h243v-217q0 -77 -52 -118.5t-145 -41.5q-30 0 -46 2z" />
    <glyph glyph-name="quotedblleft" unicode="&#x201c;" horiz-adv-x="719" 
d="M646 678v-96q-54 0 -73.5 -21.5t-18.5 -79.5h92v-178h-243v217q0 77 52 118.5t145 41.5q30 0 46 -2zM316 678v-96q-54 0 -73.5 -21.5t-18.5 -79.5h92v-178h-243v217q0 77 52 118.5t145 41.5q30 0 46 -2z" />
    <glyph glyph-name="quotedblright" unicode="&#x201d;" horiz-adv-x="719" 
d="M403 304v96q54 0 73.5 21.5t18.5 79.5h-92v178h243v-217q0 -77 -52 -118.5t-145 -41.5q-30 0 -46 2zM73 304v96q54 0 73.5 21.5t18.5 79.5h-92v178h243v-217q0 -77 -52 -118.5t-145 -41.5q-30 0 -46 2z" />
    <glyph glyph-name="quotedblbase" unicode="&#x201e;" horiz-adv-x="719" 
d="M403 -197v96q54 0 73.5 21.5t18.5 79.5h-92v178h243v-217q0 -77 -52 -118.5t-145 -41.5q-30 0 -46 2zM73 -197v96q54 0 73.5 21.5t18.5 79.5h-92v178h243v-217q0 -77 -52 -118.5t-145 -41.5q-30 0 -46 2z" />
    <glyph glyph-name="dagger" unicode="&#x2020;" horiz-adv-x="677" 
d="M281 -208l-54 340v112q49 43 54 129q-82 -9 -143 -53h-108v167h108q57 -40 143 -50q-3 81 -54 116v126h224v-126q-52 -35 -54 -116q85 10 142 50h109v-167h-109q-61 44 -142 53q3 -88 54 -129v-112l-54 -340h-116z" />
    <glyph glyph-name="daggerdbl" unicode="&#x2021;" horiz-adv-x="646" 
d="M205 236l41 61q15 25 16 74q-73 -9 -117 -52h-108v168h108q41 -44 117 -51q-7 78 -53 114v129h227v-129q-46 -38 -52 -114q76 7 117 51h107v-168h-107q-44 43 -117 52q1 -51 16 -74l41 -61l-41 -62q-15 -25 -16 -74q73 9 117 52h107v-168h-107q-41 44 -117 51
q6 -76 52 -114v-129h-227v129q46 36 53 114q-76 -7 -117 -51h-108v168h108q44 -43 117 -52q-1 51 -16 74z" />
    <glyph glyph-name="bullet" unicode="&#x2022;" horiz-adv-x="500" 
d="M250 514q67 0 114.5 -47.5t47.5 -114.5t-47.5 -114.5t-114.5 -47.5t-114.5 47.5t-47.5 114.5t47.5 114.5t114.5 47.5z" />
    <glyph glyph-name="ellipsis" unicode="&#x2026;" horiz-adv-x="1000" 
d="M44 0v178h243v-178h-243zM712 0v178h243v-178h-243zM378 0v178h243v-178h-243z" />
    <glyph glyph-name="perthousand" unicode="&#x2030;" horiz-adv-x="1292" 
d="M1090 -14q-79 0 -129 52t-50 135t50 135t129 52t128.5 -52t49.5 -135t-49.5 -135t-128.5 -52zM1090 79q21 0 28.5 19.5t7.5 74.5q0 57 -6.5 75.5t-29.5 18.5q-20 0 -28.5 -21t-8.5 -73q0 -55 8 -74.5t29 -19.5zM685 -14q-79 0 -129 52t-50 135t50 135t129 52t128.5 -52
t49.5 -135t-49.5 -135t-128.5 -52zM685 79q21 0 28.5 19.5t7.5 74.5q0 57 -6.5 75.5t-29.5 18.5q-20 0 -28.5 -21t-8.5 -73q0 -55 8 -74.5t29 -19.5zM203 319q-79 0 -129 52t-50 135t50 135t129 52t128.5 -52t49.5 -135t-49.5 -135t-128.5 -52zM203 412q21 0 28.5 19.5
t7.5 74.5q0 57 -6.5 75.5t-29.5 18.5q-20 0 -28.5 -21t-8.5 -73q0 -55 8 -74.5t29 -19.5zM271 0h-107l458 679h107z" />
    <glyph glyph-name="guilsinglleft" unicode="&#x2039;" horiz-adv-x="406" 
d="M372 474l-113 -238l113 -236h-227l-111 236l111 238h227z" />
    <glyph glyph-name="guilsinglright" unicode="&#x203a;" horiz-adv-x="406" 
d="M34 0l113 238l-113 236h227l111 -236l-111 -238h-227z" />
    <glyph glyph-name="fraction" unicode="&#x2044;" horiz-adv-x="156" 
d="M-97 0h-107l458 679h107z" />
    <glyph glyph-name="Euro" unicode="&#x20ac;" horiz-adv-x="688" 
d="M645 199q-51 -208 -275 -208q-71 0 -126 20t-89 56t-54 76.5t-31 89.5h-58v78h48q-1 10 -1 29q0 22 1 33h-48v78h59q24 110 93 176t165 66q100 0 162 -49v35h137v-215h-142q-33 84 -97 84q-30 0 -55 -25t-39 -72h124v-78h-136q-1 -10 -1 -32q0 -20 1 -30h136v-78h-124
q28 -98 97 -98q78 0 105 110z" />
    <glyph glyph-name="afii61289" unicode="&#x2113;" horiz-adv-x="655" 
d="M551 222l77 -77q-49 -79 -123 -115t-156 -36q-170 0 -216 142q-1 3 -1 8q-8 -5 -25 -15.5t-27 -16.5l-50 87q18 12 98 62v199q0 284 226 284q94 0 143 -52t49 -130q0 -88 -59 -165t-184 -171l2 -16q4 -34 28.5 -54.5t61.5 -20.5q44 0 85 25t71 62zM303 510v-140
q111 103 111 192q0 70 -50 70q-26 0 -43.5 -29t-17.5 -93z" />
    <glyph glyph-name="trademark" unicode="&#x2122;" horiz-adv-x="948" 
d="M11 679h391v-95h-138v-303h-115v303h-138v95zM447 679h173l55 -218h2l57 218h172v-398h-110v281h-2l-73 -281h-90l-72 281h-2v-281h-110v398z" />
    <glyph glyph-name="Omega" unicode="&#x2126;" horiz-adv-x="883" 
d="M205 132v3q-61 37 -104.5 100.5t-43.5 148.5q0 129 106.5 216t279.5 87t277.5 -88t104.5 -216q0 -152 -152 -248v-3h165v-132h-355v102q77 46 111 97q45 63 45 152q0 86 -54 146t-141 60q-85 0 -142 -57.5t-57 -152.5q0 -82 42.5 -147t113.5 -98v-102h-357v132h161z" />
    <glyph glyph-name="estimated" unicode="&#x212e;" horiz-adv-x="846" 
d="M813 332h-632q-5 0 -5 -4v-191q0 -12 8 -22q102 -104 239 -104q150 0 252 117h56q-54 -63 -135 -99.5t-174 -36.5q-161 0 -275 102.5t-114 247.5t114 248t275 103q162 0 276.5 -103t114.5 -248v-10zM669 357v192q0 14 -9 23q-102 100 -237 100t-238 -103q-9 -9 -9 -24
v-188q0 -6 5 -6h484q4 0 4 6z" />
    <glyph glyph-name="partialdiff" unicode="&#x2202;" horiz-adv-x="694" 
d="M112 589l-53 113q98 63 238 63q154 0 254 -104.5t100 -274.5q0 -177 -100 -284.5t-256 -107.5q-53 0 -97.5 15.5t-74.5 40.5t-51.5 56.5t-31 63t-9.5 61.5q0 108 71.5 181t188.5 73q66 0 111.5 -28.5t67.5 -60.5h1q1 5 1 20q0 90 -52.5 152.5t-145.5 62.5q-84 0 -162 -42
zM315 125h1q52 0 90 45t47 102q-7 29 -40 57t-78 28q-53 0 -87.5 -36t-34.5 -90q0 -46 29 -76t73 -30z" />
    <glyph glyph-name="uni2206" unicode="&#x2206;" horiz-adv-x="792" 
d="M24 0v86l262 605h223l258 -605v-86h-743zM223 133h331l-113 280q-48 127 -53 142h-5q0 -1 -46 -132z" />
    <glyph glyph-name="product" unicode="&#x220f;" horiz-adv-x="849" 
d="M829 531h-120v-624h-176v624h-218v-624h-176v624h-120v144h810v-144z" />
    <glyph glyph-name="summation" unicode="&#x2211;" horiz-adv-x="672" 
d="M657 -93h-636v93l267 286l-252 278v111h595v-143h-344v-4l207 -225l-228 -247v-5h391v-144z" />
    <glyph glyph-name="minus" unicode="&#x2212;" horiz-adv-x="668" 
d="M53 418h561v-158h-561v158z" />
    <glyph glyph-name="uni2215" unicode="&#x2215;" horiz-adv-x="156" 
d="M-97 0h-107l458 679h107z" />
    <glyph glyph-name="uni2219" unicode="&#x2219;" horiz-adv-x="396" 
d="M76 278v178h243v-178h-243z" />
    <glyph glyph-name="radical" unicode="&#x221a;" horiz-adv-x="708" 
d="M737 806l-276 -952h-139l-182 417l-83 -34l-30 83l216 88l122 -311q6 -16 15.5 -44.5l12.5 -37.5h2q10 46 20 86l194 705h128z" />
    <glyph glyph-name="infinity" unicode="&#x221e;" horiz-adv-x="820" 
d="M773 281v-1q0 -85 -52.5 -136.5t-123.5 -51.5q-106 0 -188 114q-45 -56 -89 -85t-102 -29q-70 0 -121 50.5t-51 131.5q0 82 52 134t130 52q105 0 189 -111q2 3 11.5 14t13.5 15t14 14.5t16 15t16.5 13.5t19 13.5t20.5 10t23 8.5t24.5 5t27.5 2q72 -1 121 -50t49 -129z
M228 179h2q60 0 131 91q-26 38 -39.5 54.5t-39.5 33t-56 16.5q-39 0 -64.5 -27.5t-25.5 -72.5q0 -39 26.5 -67t65.5 -28zM593 374h-1q-9 0 -18 -1.5t-18 -6.5t-16 -8.5t-16 -11.5t-14 -12t-14 -14.5l-12 -14t-12.5 -15t-10.5 -13.5q44 -57 73.5 -77.5t64.5 -20.5
q38 0 60.5 29.5t22.5 64.5q0 44 -24 72.5t-65 28.5z" />
    <glyph glyph-name="integral" unicode="&#x222b;" horiz-adv-x="433" 
d="M427 829l-16 -105q-21 7 -43 7q-40 0 -60 -28q-25 -35 -25 -154q0 -77 9 -217.5t9 -232.5q0 -125 -38 -188q-49 -85 -159 -85q-63 0 -97 16l20 109q24 -10 50 -10q35 0 54 22q30 37 30 139q0 93 -9.5 238t-9.5 227q0 84 17.5 136.5t55.5 89.5q47 48 141 48q40 0 71 -12z
" />
    <glyph glyph-name="approxequal" unicode="&#x2248;" horiz-adv-x="627" 
d="M528 465l62 -63q-73 -106 -163 -106q-34 0 -60.5 9.5t-66.5 31.5q-62 32 -94 32q-55 0 -114 -72l-61 64q28 43 77.5 74t100.5 31q57 0 116 -35q37 -23 54.5 -30.5t41.5 -7.5q54 0 107 72zM528 262l62 -64q-73 -105 -165 -105q-53 0 -125 40q-60 32 -93 32
q-35 0 -60.5 -18.5t-54.5 -53.5l-61 64q28 43 77.5 74t100.5 31q55 0 115 -34q6 -3 22 -13t24 -14t22 -8t28 -4q31 0 54.5 17t53.5 56z" />
    <glyph glyph-name="notequal" unicode="&#x2260;" horiz-adv-x="627" 
d="M468 514l-38 -82h145v-94h-186l-59 -127h245v-94h-287l-55 -120l-77 35l39 85h-143v94h185l58 127h-243v94h285l54 118z" />
    <glyph glyph-name="lessequal" unicode="&#x2264;" horiz-adv-x="627" 
d="M574 125l-520 223v100l519 223v-104l-416 -168v-2l417 -169v-103zM575 -7h-523v97h523v-97z" />
    <glyph glyph-name="greaterequal" unicode="&#x2265;" horiz-adv-x="627" 
d="M54 671l520 -223v-101l-519 -222v103l415 169v2l-416 168v104zM569 -7h-516v97h516v-97z" />
    <glyph glyph-name="lozenge" unicode="&#x25ca;" horiz-adv-x="708" 
d="M658 336l-238 -383h-135l-236 383l237 384h135zM504 333l-132 226q-14 25 -19 40h-3q-5 -15 -19 -40l-129 -220l133 -227q12 -23 18 -38h4q12 27 18 37z" />
    <glyph glyph-name="fi" unicode="&#xfb01;" horiz-adv-x="792" 
d="M25 0v149h62v176h-62v149h62q-6 117 73 168t232 51q262 0 310 -133l-239 -27q-4 22 -22 35.5t-44 13.5q-36 0 -52 -25t-12 -83h376v-325h56v-149h-341v149h39v176h-130v-176h39v-149h-347z" />
    <glyph glyph-name="fl" unicode="&#xfb02;" horiz-adv-x="792" 
d="M25 0v149h62v176h-62v149h62q-5 113 71.5 166t225.5 53q65 0 143 -14h182v-530h56v-149h-341v149h39v381q-4 23 -21.5 37.5t-41.5 14.5q-38 0 -54 -24t-13 -84h64v-149h-64v-176h39v-149h-347z" />
    <glyph glyph-name="one.superior" horiz-adv-x="406" 
d="M78 323v98h57v137q-33 -7 -57 0v94q53 -1 80.5 9t47.5 32h68v-272h55v-98h-251z" />
    <glyph glyph-name="two.superior" horiz-adv-x="406" 
d="M227 588q0 24 -36 24q-9 0 -15.5 -2.5t-10 -6t-6 -10t-3 -9.5t-1.5 -10.5t-1 -8.5l-116 3q0 125 160 125q74 0 120 -30.5t46 -80.5q0 -37 -28 -65q-30 -30 -103 -59q-57 -23 -66 -37h105l1 29h94l-4 -127h-331v23q0 69 53 122q24 24 69.5 53t58.5 42q14 14 14 25z" />
    <glyph glyph-name="three.superior" horiz-adv-x="406" 
d="M232 440q0 35 -65 36v73q56 3 56 32q0 26 -37 26q-21 0 -29 -9t-10 -29l-120 4q4 62 45 91t124 29q77 0 121 -28t44 -77q0 -41 -40 -69q29 -17 41.5 -36.5t12.5 -47.5q0 -54 -48 -85t-131 -31q-173 0 -176 138l116 8q2 -32 13.5 -44t39.5 -12q43 0 43 31z" />
    <glyph glyph-name="a.superior" horiz-adv-x="479" 
d="M150 590l-137 12q19 50 67 70.5t139 20.5q115 0 161.5 -26.5t46.5 -96.5v-77h39v-106h-207v15q-53 -20 -101 -20q-63 0 -100 26t-37 70t41.5 71t111.5 27q40 0 85 -11q0 29 -12.5 41.5t-41.5 12.5q-41 0 -55 -29zM259 465v40q-23 8 -38 8q-40 0 -40 -29q0 -12 11 -21.5
t25 -9.5q12 0 42 12z" />
    <glyph glyph-name="o.superior" horiz-adv-x="479" 
d="M21 537q0 68 60 112t154 44q99 0 161 -43.5t62 -112.5q0 -70 -60 -114t-157 -44q-100 0 -160 43.5t-60 114.5zM192 535q0 -56 46 -56q49 0 49 60q0 54 -46 54q-49 0 -49 -58z" />
    </font>
</defs>
</svg>
